<?xml version="1.0" encoding="utf-8"?>
<!-- Generator: Adobe Illustrator 27.5.0, SVG Export Plug-In . SVG Version: 6.00 Build 0)  -->
<svg version="1.1" xmlns="http://www.w3.org/2000/svg" xmlns:xlink="http://www.w3.org/1999/xlink" x="0px" y="0px"
	 viewBox="0 0 2475 1650" style="enable-background:new 0 0 2475 1650;" xml:space="preserve">
<g id="Background">
	<rect style="fill:#FFFFFF;" width="2475" height="1650"/>
</g>
<g id="Illustration">
	<g>
		<linearGradient id="SVGID_1_" gradientUnits="userSpaceOnUse" x1="201.765" y1="767.6571" x2="2223.7842" y2="767.6571">
			<stop  offset="0" style="stop-color:#DAE3FE"/>
			<stop  offset="1" style="stop-color:#E9EFFD"/>
		</linearGradient>
		<path style="fill:url(#SVGID_1_);" d="M728.487,198.407C609.7,332.182,197.463,183.567,201.799,430.206
			C206.876,719,612.026,803.968,480.838,1006.942c-131.189,202.975,13.68,430.487,540.861,426.202
			c527.181-4.285,1375.259-259.027,1170.942-535.705c-204.317-276.679-68.187-290.871-58.22-413.151
			c9.967-122.279-93.399-390.497-501.695-166.82S1029.293-140.35,728.487,198.407z"/>
		<g>
			<path style="fill:#BDD0FB;" d="M1889.43,1401.142c0,0,344.779-91.603,334.823-336.315s-44.894-340.983,46.146-424.487
				c91.04-83.503,1.508-218.698-156.152-208.547c-157.66,10.151-249.479,217.724-203.188,408.705
				c46.29,190.982,130.418,330.355,22.216,420.748c-108.202,90.392-0.956-51.885-2.504-160.548
				c-1.548-108.664-19.126-266.505-144.479-310.112s-89.364,113.657-56.832,274.404c32.531,160.746,9.908,274.153,9.908,274.153
				L1889.43,1401.142z"/>
			<path style="fill:#DCE5FE;" d="M2142.756,570.829c-7.905,4.84-15.026,10.396-21.734,16.336
				c-6.708,5.933-13.008,12.224-18.839,18.851c-11.768,13.186-21.833,27.594-30.378,42.773
				c-17.038,30.411-27.81,63.991-32.674,98.833c-2.547,17.405-3.464,35.16-3.333,53.018c0.262,17.877,1.885,35.917,4.046,53.752
				c4.336,35.764,10.414,71.466,15.953,107.028c2.856,17.786,5.498,35.533,7.661,53.239c2.165,17.703,3.884,35.37,4.536,52.905
				c0.724,17.539,0.618,34.978-0.814,52.167c-1.516,17.169-4.518,34.025-8.999,50.407l-1.73,6.13l-0.865,3.067l-1.057,2.996
				l-4.255,11.983l-5.016,11.683c-0.783,1.974-1.77,3.852-2.747,5.737l-2.905,5.667c-0.985,1.881-1.9,3.799-2.942,5.652l-3.3,5.472
				l-3.294,5.479l-1.651,2.739l-1.832,2.636l-7.33,10.557c-2.619,3.412-5.364,6.746-8.041,10.127
				c-1.377,1.664-2.625,3.419-4.109,5.01l-4.395,4.816l-4.397,4.82c-1.46,1.611-2.908,3.234-4.527,4.724l-9.424,9.183l-2.358,2.298
				l-2.506,2.174l-5.024,4.344l-5.026,4.347l-2.514,2.175l-2.644,2.058l-10.595,8.226c-3.457,2.821-7.234,5.326-10.925,7.922
				l-11.114,7.756l-0.026,0.018c-0.361,0.252-0.37,0.742-0.021,1.094c0.338,0.341,0.89,0.427,1.252,0.204
				c15.56-9.623,31.039-19.46,44.942-30.845l5.292-4.196l2.643-2.103l2.497-2.23l9.996-8.928c1.705-1.459,3.237-3.055,4.785-4.641
				l4.658-4.745l4.66-4.749c1.572-1.57,2.913-3.308,4.381-4.954c2.86-3.347,5.789-6.652,8.595-10.041l7.9-10.513l1.976-2.631
				l1.796-2.737l3.551-5.501l3.546-5.508c1.124-1.867,2.121-3.8,3.188-5.698l3.151-5.721c1.059-1.904,2.128-3.803,2.992-5.799
				l5.503-11.831l4.733-12.158l1.176-3.045l0.982-3.114l1.962-6.232c5.063-16.674,8.429-33.913,10.368-51.417
				c1.814-17.529,2.345-35.282,1.888-53.108c-0.446-17.831-1.97-35.729-3.939-53.605c-1.97-17.878-4.407-35.751-7.066-53.585
				c-5.416-35.677-11.323-71.243-15.474-106.665c-1.99-17.744-3.762-35.279-4.148-52.727c-0.281-17.427,0.616-34.696,2.583-51.738
				c4.076-34.048,13.414-67.008,28.461-97.466c1.865-3.813,3.894-7.55,5.913-11.293c2.143-3.677,4.192-7.412,6.521-10.993
				c4.464-7.271,9.324-14.337,14.594-21.149c5.277-6.806,10.856-13.436,16.913-19.723c6.091-6.238,12.421-12.408,19.584-17.706
				l0.034-0.025c0.352-0.26,0.348-0.752-0.01-1.098C2143.65,570.69,2143.111,570.613,2142.756,570.829z"/>
			<path style="opacity:0.69;fill:#FFFFFF;" d="M1776.724,855.93c14.179,36.574,26.108,73.391,36.263,110.253
				c10.211,36.864,17.942,73.847,23.225,110.731c2.634,18.45,4.044,36.831,5.091,55.17l0.473,13.725
				c0.089,4.567-0.02,9.107-0.018,13.664l-0.029,6.832l-0.262,6.795l-0.26,6.799c-0.079,2.269-0.153,4.539-0.387,6.778
				c-1.221,18.05-3.708,35.857-7.217,53.44c-3.656,17.551-8.922,34.629-15.037,51.516l-0.013,0.035
				c-0.142,0.393,0.133,0.859,0.614,1.042c0.451,0.171,0.925,0.029,1.1-0.312c4.068-8.027,8.506-15.962,11.71-24.411l2.607-6.264
				l1.274-3.147l1.074-3.218l4.3-12.894c1.379-4.321,2.38-8.759,3.555-13.15l1.695-6.61l1.348-6.705l1.348-6.711
				c0.427-2.243,0.968-4.463,1.22-6.745l1.881-13.625c4.453-36.482,3.297-74.058-1.557-111.597
				c-1.307-9.388-2.564-18.785-4.405-28.174c-1.608-9.392-3.688-18.773-5.772-28.146l-3.414-14.046l-3.781-14.016
				c-1.244-4.672-2.697-9.327-4.035-13.989c-1.313-4.665-2.844-9.309-4.356-13.952c-1.473-4.647-3.096-9.276-4.691-13.907
				c-1.562-4.634-3.258-9.251-4.936-13.867c-3.419-9.225-7.12-18.403-10.884-27.559c-7.788-18.269-16.074-36.432-26.062-54.159
				c-0.231-0.411-0.781-0.629-1.228-0.489c-0.408,0.128-0.589,0.511-0.441,0.889L1776.724,855.93z"/>
		</g>
		<g>
			<g>
				<path style="fill:#BDD0FB;" d="M812.375,947.093c-24.285-91.197-76.059-165.478-139.39-210.77
					c-56.614-40.489-95.926-101.132-108.326-169.552c-1.303-7.192-2.915-14.42-4.843-21.66
					C530.61,435.431,439.73,364.413,356.832,386.488c-82.899,22.074-126.426,128.883-97.219,238.563
					c5.972,22.428,14.525,43.233,25.061,61.955c33.624,59.749,44.589,129.96,28.064,196.529
					c-14.767,59.49-14.695,127.298,3.511,195.67c27.155,101.974,88.68,182.803,162.298,225.601
					c27.846,16.188,52.649,37.332,72.835,62.399c33.543,41.655,82.572,62.878,129.113,50.485
					c50.208-13.37,83.468-62.118,88.442-120.667c2.814-33.132,12.116-65.283,26.233-95.416
					C828.495,1130.471,836.928,1039.299,812.375,947.093z"/>
				<path style="fill:#DCE5FE;" d="M416.93,495.436c30.132,69.603,58.004,140.119,85.138,210.926
					c6.791,17.698,13.297,35.504,19.861,53.288l9.841,26.678l9.617,26.76c6.343,17.865,12.932,35.643,19.073,53.581l18.426,53.809
					c11.825,36.029,23.956,71.957,35.11,108.206c5.602,18.115,11.557,36.118,16.792,54.348l15.954,54.604
					c20.535,73.018,39.244,146.586,54.194,220.956l-3.199,0.676l-13.304-55.218l-3.295-13.807l-3.64-13.724l-7.331-27.433
					l-7.278-27.441c-2.409-9.151-5.159-18.213-7.721-27.323c-5.247-18.188-10.349-36.415-15.714-54.567
					c-21.93-72.474-44.821-144.657-69.198-216.359c-12.463-35.758-24.618-71.619-37.33-107.293l-9.46-26.78l-9.685-26.701
					c-6.446-17.805-12.893-35.61-19.519-53.35c-12.949-35.591-26.153-71.093-39.647-106.485
					c-13.308-35.462-26.954-70.809-40.703-106.097L416.93,495.436z"/>
			</g>
			<g>
				<path style="fill:#BDD0FB;" d="M558.105,1128.266c-38.08-40.216-85.561-64.036-130.856-69.689
					c-40.492-5.053-77.734-25.326-103.309-57.122c-2.688-3.342-5.545-6.617-8.568-9.81
					c-45.799-48.366-112.487-59.582-148.953-25.052c-36.467,34.53-28.902,101.731,16.896,150.097
					c9.365,9.89,19.602,18.223,30.276,24.929c34.065,21.399,59.403,54.521,69.575,93.442c9.089,34.782,28.149,69.707,56.699,99.858
					c42.58,44.968,96.915,69.438,146.806,70.932c18.871,0.565,37.566,4.534,54.984,11.814c28.947,12.097,60.13,9.341,80.604-10.045
					c22.085-20.913,25.525-55.326,11.66-86.888c-7.846-17.86-12.079-37.027-13.268-56.499
					C617.844,1218.266,596.607,1168.924,558.105,1128.266z"/>
				<path style="fill:#DCE5FE;" d="M227.908,1005.954c35.032,27.454,69.156,56.01,102.983,84.92
					c8.46,7.224,16.803,14.583,25.169,21.915l12.548,11l12.457,11.105c8.275,7.435,16.654,14.756,24.845,22.285l24.577,22.585
					c16.193,15.265,32.514,30.392,48.423,45.957c7.965,7.771,16.08,15.385,23.887,23.318l23.529,23.685
					c31.05,31.894,61.316,64.581,89.872,98.733l-1.456,1.242l-22.336-24.74l-5.569-6.195l-5.723-6.057l-11.468-12.09l-11.443-12.109
					c-3.807-4.043-7.764-7.946-11.638-11.925c-7.803-7.907-15.541-15.875-23.394-23.732c-31.616-31.225-63.645-62.031-96.304-92.173
					c-16.444-14.946-32.759-30.033-49.309-44.866l-12.381-11.159l-12.474-11.056c-8.312-7.375-16.624-14.75-25.01-22.041
					c-16.648-14.725-33.402-29.333-50.275-43.804c-16.797-14.558-33.735-28.962-50.709-43.308L227.908,1005.954z"/>
			</g>
		</g>
		<g>
			
				<linearGradient id="SVGID_00000162321591362677588590000015341189827699232176_" gradientUnits="userSpaceOnUse" x1="2309.8611" y1="617.2693" x2="1865.4762" y2="971.3889">
				<stop  offset="0" style="stop-color:#4042E2"/>
				<stop  offset="1" style="stop-color:#4F52FF"/>
			</linearGradient>
			<path style="fill:url(#SVGID_00000162321591362677588590000015341189827699232176_);" d="M1872.192,974.035
				c5.819,4.509,165.553-7.064,232.657,6.823c0,0,52.015-226.943-97.333-235.857c-149.348-8.914-201.13,83.249-201.13,83.249
				L1872.192,974.035z"/>
			<path style="fill:#7D97F4;" d="M1714.451,734.307l293.066,10.694c0,0-106.791,1.463-94.966,136.524
				c11.824,135.061,72.002,529.446-80.829,529.832c-152.832,0.386-155.276-69.416-155.276-69.416L1714.451,734.307z"/>
			
				<linearGradient id="SVGID_00000060734513667524935760000016084374660287187077_" gradientUnits="userSpaceOnUse" x1="2966.8013" y1="146.2359" x2="1107.2291" y2="1464.7437">
				<stop  offset="0" style="stop-color:#4042E2"/>
				<stop  offset="1" style="stop-color:#4F52FF"/>
			</linearGradient>
			<path style="fill:url(#SVGID_00000060734513667524935760000016084374660287187077_);" d="M1577.585,670.937l113.282-26.372
				c0,0,75.742-6.809,85.985,60.513c10.243,67.321,7.275,466.163,4.069,548.418c-3.206,82.255,4.509,145.519,50.8,157.863
				l-336.758,5.827L1577.585,670.937z"/>
			<path style="fill:#7D97F4;" d="M1347.287,676.413c0,0,206.27,11.335,343.58-31.848c0,0-91.281-6.254-91.281,204.495
				c0,161.13,23.897,468.68,3.032,527.061c-20.864,58.381-98.883,136.86-210.721,69.414
				C1280.058,1378.09,1347.287,676.413,1347.287,676.413z"/>
			<path style="fill:#7D97F4;" d="M1292.447,360.45c0,0,227.586,24.808,256.903-13.768c0,0-23.322-69.426-92.581-64.806
				C1387.511,286.495,1292.447,360.45,1292.447,360.45z"/>
			
				<linearGradient id="SVGID_00000126317111498409075380000008040291290304849854_" gradientUnits="userSpaceOnUse" x1="1369.8564" y1="474.9662" x2="188.6409" y2="1986.5594">
				<stop  offset="0" style="stop-color:#4042E2"/>
				<stop  offset="1" style="stop-color:#4F52FF"/>
			</linearGradient>
			<path style="fill:url(#SVGID_00000126317111498409075380000008040291290304849854_);" d="M552.261,438.559
				c19.845,223.031,61.531,694.78,79.665,924.58c4.043,51.23,45.106,91.696,96.39,94.987
				c182.683,11.726,593.811,34.477,751.582,13.309h0c-36.142-17.817-58.9-54.745-58.573-95.038l8.377-1031.18
				c0.296-36.437,36.588-62.618,70.709-49.833c21.496,8.055,37.774,25.216,48.939,51.298
				c-14.896-43.408-38.322-75.166-92.581-64.806c0,0-530.667,5.305-788.176,21.272C598.621,307.486,546.047,368.728,552.261,438.559
				z"/>
			<defs>
				<filter id="Adobe_OpacityMaskFilter" filterUnits="userSpaceOnUse" x="572.53" y="305.213" width="857.574" height="1159.394">
					<feFlood  style="flood-color:white;flood-opacity:1" result="back"/>
					<feBlend  in="SourceGraphic" in2="back" mode="normal"/>
				</filter>
			</defs>
			
				<mask maskUnits="userSpaceOnUse" x="572.53" y="305.213" width="857.574" height="1159.394" id="SVGID_00000122001003374555575610000009338938237702356106_">
				<g style="filter:url(#Adobe_OpacityMaskFilter);">
					<defs>
						
							<filter id="Adobe_OpacityMaskFilter_00000114771364476436707450000001274766832980199577_" filterUnits="userSpaceOnUse" x="572.53" y="305.213" width="857.574" height="1159.394">
							<feFlood  style="flood-color:white;flood-opacity:1" result="back"/>
							<feBlend  in="SourceGraphic" in2="back" mode="normal"/>
						</filter>
					</defs>
					
						<mask maskUnits="userSpaceOnUse" x="572.53" y="305.213" width="857.574" height="1159.394" id="SVGID_00000122001003374555575610000009338938237702356106_">
						<g style="filter:url(#Adobe_OpacityMaskFilter_00000114771364476436707450000001274766832980199577_);">
						</g>
					</mask>
					
						<linearGradient id="SVGID_00000122696158921918675520000001314021416233154449_" gradientUnits="userSpaceOnUse" x1="1323.7141" y1="523.8867" x2="225.7175" y2="1928.9854">
						<stop  offset="0" style="stop-color:#FFFFFF"/>
						<stop  offset="1" style="stop-color:#000000"/>
					</linearGradient>
					
						<path style="mask:url(#SVGID_00000122001003374555575610000009338938237702356106_);fill:url(#SVGID_00000122696158921918675520000001314021416233154449_);" d="
						M683.535,332.665l713.058-27.452c-29.41,217.729-16.998,661.117-5.776,1098.086c0.665,25.905,15.858,49.22,39.287,60.292l0,0
						c0,0-475.605,5.48-679.96-9.014c-48.117-3.413-87.369-39.822-94.518-87.527c-28.055-187.215-95.175-670.859-81.206-926.91
						C577.62,381.505,624.856,334.924,683.535,332.665z"/>
				</g>
			</mask>
			<path style="fill:#BDD0FB;" d="M683.535,332.665l713.058-27.452c-29.41,217.729-16.998,661.117-5.776,1098.086
				c0.665,25.905,15.858,49.22,39.287,60.292l0,0c0,0-475.605,5.48-679.96-9.014c-48.117-3.413-87.369-39.822-94.518-87.527
				c-28.055-187.215-95.175-670.859-81.206-926.91C577.62,381.505,624.856,334.924,683.535,332.665z"/>
			<g>
				
					<linearGradient id="SVGID_00000023246901419859673930000017079136269337914770_" gradientUnits="userSpaceOnUse" x1="675.5289" y1="678.8093" x2="789.5249" y2="678.8093">
					<stop  offset="0" style="stop-color:#DAE3FE"/>
					<stop  offset="1" style="stop-color:#E9EFFD"/>
				</linearGradient>
				<path style="opacity:0.78;fill:url(#SVGID_00000023246901419859673930000017079136269337914770_);" d="M675.691,643.302
					l8.322,79.871c1.526,14.641,13.582,25.933,28.292,26.497l46.502,1.784c16.772,0.643,30.719-12.779,30.719-29.563V635.73
					c0-17.295-14.771-30.902-32.008-29.485l-54.824,4.506C686.157,612.109,673.971,626.799,675.691,643.302z"/>
				
					<linearGradient id="SVGID_00000183950452719236872050000017789521487219373967_" gradientUnits="userSpaceOnUse" x1="822.9919" y1="629.2642" x2="1306.0314" y2="629.2642">
					<stop  offset="0" style="stop-color:#DAE3FE"/>
					<stop  offset="1" style="stop-color:#E9EFFD"/>
				</linearGradient>
				<path style="opacity:0.78;fill:url(#SVGID_00000183950452719236872050000017789521487219373967_);" d="M839.215,618.682
					c77.397-2.407,374.505-12.065,449.53-14.506c9.463-0.308,17.286,7.281,17.286,16.749l0,0c0,9.013-7.129,16.411-16.135,16.746
					l-449.241,16.678c-8.654,0.321-16.127-6.004-17.24-14.591l-0.282-2.172C821.86,627.766,829.318,618.99,839.215,618.682z"/>
				
					<linearGradient id="SVGID_00000150810437775733959860000015123764032611942054_" gradientUnits="userSpaceOnUse" x1="831.8472" y1="706.8083" x2="1156.0758" y2="706.8083">
					<stop  offset="0" style="stop-color:#DAE3FE"/>
					<stop  offset="1" style="stop-color:#E9EFFD"/>
				</linearGradient>
				<path style="opacity:0.78;fill:url(#SVGID_00000150810437775733959860000015123764032611942054_);" d="M834.354,723.978
					L834.354,723.978c1.314,2.204,3.711,3.531,6.276,3.475l308.473-6.701c3.875-0.084,6.973-3.25,6.973-7.126v-20.337
					c0-4.041-3.356-7.273-7.394-7.122l-299.871,11.212C835.455,697.879,827.509,712.498,834.354,723.978z"/>
			</g>
			<g>
				
					<linearGradient id="SVGID_00000092413899462935172410000005207663436369994647_" gradientUnits="userSpaceOnUse" x1="675.5289" y1="900.4806" x2="789.5249" y2="900.4806">
					<stop  offset="0" style="stop-color:#DAE3FE"/>
					<stop  offset="1" style="stop-color:#E9EFFD"/>
				</linearGradient>
				<path style="opacity:0.78;fill:url(#SVGID_00000092413899462935172410000005207663436369994647_);" d="M675.691,864.973
					l8.322,79.871c1.526,14.641,13.582,25.933,28.292,26.497l46.502,1.784c16.772,0.643,30.719-12.779,30.719-29.563v-86.16
					c0-17.295-14.771-30.902-32.008-29.485l-54.824,4.506C686.157,833.781,673.971,848.47,675.691,864.973z"/>
				
					<linearGradient id="SVGID_00000101803386097046463630000003617665401581432211_" gradientUnits="userSpaceOnUse" x1="822.9919" y1="850.9355" x2="1306.0314" y2="850.9355">
					<stop  offset="0" style="stop-color:#DAE3FE"/>
					<stop  offset="1" style="stop-color:#E9EFFD"/>
				</linearGradient>
				<path style="opacity:0.78;fill:url(#SVGID_00000101803386097046463630000003617665401581432211_);" d="M839.215,840.354
					c77.397-2.407,374.505-12.065,449.53-14.506c9.463-0.308,17.286,7.281,17.286,16.749v0c0,9.013-7.129,16.411-16.135,16.746
					l-449.241,16.678c-8.654,0.321-16.127-6.004-17.24-14.591l-0.282-2.173C821.86,849.438,829.318,840.661,839.215,840.354z"/>
				
					<linearGradient id="SVGID_00000051385194950685995520000014596167625630251924_" gradientUnits="userSpaceOnUse" x1="831.8472" y1="928.4796" x2="1156.0758" y2="928.4796">
					<stop  offset="0" style="stop-color:#DAE3FE"/>
					<stop  offset="1" style="stop-color:#E9EFFD"/>
				</linearGradient>
				<path style="opacity:0.78;fill:url(#SVGID_00000051385194950685995520000014596167625630251924_);" d="M834.354,945.649
					L834.354,945.649c1.314,2.204,3.711,3.531,6.276,3.475l308.473-6.702c3.875-0.084,6.973-3.25,6.973-7.125V914.96
					c0-4.041-3.356-7.273-7.394-7.122L848.811,919.05C835.455,919.55,827.509,934.17,834.354,945.649z"/>
			</g>
			<g>
				
					<linearGradient id="SVGID_00000095311351512703501080000015344050480723945145_" gradientUnits="userSpaceOnUse" x1="675.5289" y1="1122.1519" x2="789.5249" y2="1122.1519">
					<stop  offset="0" style="stop-color:#DAE3FE"/>
					<stop  offset="1" style="stop-color:#E9EFFD"/>
				</linearGradient>
				<path style="opacity:0.78;fill:url(#SVGID_00000095311351512703501080000015344050480723945145_);" d="M675.691,1086.644
					l8.322,79.871c1.526,14.641,13.582,25.933,28.292,26.497l46.502,1.784c16.772,0.644,30.719-12.779,30.719-29.563v-86.161
					c0-17.295-14.771-30.902-32.008-29.485l-54.824,4.506C686.157,1055.452,673.971,1070.141,675.691,1086.644z"/>
				
					<linearGradient id="SVGID_00000000195625963907476450000001858757003971565496_" gradientUnits="userSpaceOnUse" x1="822.9919" y1="1072.6068" x2="1306.0314" y2="1072.6068">
					<stop  offset="0" style="stop-color:#DAE3FE"/>
					<stop  offset="1" style="stop-color:#E9EFFD"/>
				</linearGradient>
				<path style="opacity:0.78;fill:url(#SVGID_00000000195625963907476450000001858757003971565496_);" d="M839.215,1062.025
					c77.397-2.406,374.505-12.065,449.53-14.506c9.463-0.308,17.286,7.281,17.286,16.749l0,0c0,9.013-7.129,16.411-16.135,16.746
					l-449.241,16.678c-8.654,0.321-16.127-6.003-17.24-14.591l-0.282-2.173C821.86,1071.109,829.318,1062.333,839.215,1062.025z"/>
				
					<linearGradient id="SVGID_00000041289587879270011340000001541071253866428326_" gradientUnits="userSpaceOnUse" x1="831.8472" y1="1150.1509" x2="1156.0758" y2="1150.1509">
					<stop  offset="0" style="stop-color:#DAE3FE"/>
					<stop  offset="1" style="stop-color:#E9EFFD"/>
				</linearGradient>
				<path style="opacity:0.78;fill:url(#SVGID_00000041289587879270011340000001541071253866428326_);" d="M834.354,1167.321
					L834.354,1167.321c1.314,2.203,3.711,3.531,6.276,3.475l308.473-6.702c3.875-0.084,6.973-3.25,6.973-7.125v-20.337
					c0-4.041-3.356-7.273-7.394-7.122l-299.871,11.212C835.455,1141.221,827.509,1155.841,834.354,1167.321z"/>
			</g>
			<path style="fill:#BDD0FB;" d="M1900.449,1034.251c-1.824,0-3.354-1.422-3.463-3.264c-0.054-0.915-5.576-92.35-15.474-168.444
				c-10.271-78.956,32.937-95.605,34.781-96.276c1.811-0.653,3.797,0.276,4.451,2.079c0.653,1.797-0.271,3.781-2.064,4.442l0,0
				c-1.63,0.61-39.79,15.759-30.283,88.86c9.929,76.338,15.465,168.008,15.519,168.923c0.115,1.915-1.345,3.56-3.257,3.673
				C1900.587,1034.248,1900.516,1034.251,1900.449,1034.251z"/>
			
				<linearGradient id="SVGID_00000173136485871480179020000009264509567743288976_" gradientUnits="userSpaceOnUse" x1="1016.2827" y1="1317.9006" x2="1213.085" y2="1317.9006">
				<stop  offset="0" style="stop-color:#09005D"/>
				<stop  offset="1" style="stop-color:#1A0F91"/>
			</linearGradient>
			<path style="fill:url(#SVGID_00000173136485871480179020000009264509567743288976_);" d="M1067.216,1418.776
				c-3.28,0-6.602-1.586-10.142-4.839c-13.995-12.855-17.188-33.017-17.972-51.848c-6.778,7.648-13.747,15.073-20.632,22.41
				l-2.188-2.053c7.582-8.079,15.266-16.267,22.676-24.734c-0.625-25.224,0.53-50.723,3.435-75.787
				c1.768-15.25,4.313-31.387,10.905-46.068c2.073-4.618,5.507-11.231,11.366-15.328c6.003-4.196,13.846-4.675,19.073-1.162
				c5.912,3.973,7.521,11.634,8.218,17.051c4.195,32.631-8.555,62.57-19.99,81.94c-8.567,14.514-18.962,27.802-29.976,40.446
				c0.55,19.086,3.141,40.087,17.115,52.924c3.063,2.813,5.811,4.143,8.372,4.043c4.248-0.154,7.545-4.077,10.21-7.894
				c11.595-16.607,20.612-34.621,26.908-53.724c0.715-5.649,2.289-11.19,4.691-16.36l2.818,0.986
				c-1.317,5.424-2.842,10.771-4.57,16.039c-0.666,5.505-0.469,11.113,0.622,16.557c0.595,2.971,3.116,12.773,10.571,14.193
				c5.609,1.071,11.124-2.841,17.353-12.306l21.415-32.55l-1.898,8.174c-1.135,4.888-3.002,16.573,4.154,19.517
				c4.11,1.691,8.401-0.725,12.944-3.282c4.371-2.462,8.883-5.009,13.875-4.345l1.545,0.206l-0.265,1.536
				c-1.171,6.791-0.571,15.156,4.977,16.383c3.646,0.81,6.59-1.918,10.001-5.071c2.849-2.634,5.794-5.357,9.553-6.267l0.706,2.916
				c-3.001,0.726-5.656,3.181-8.223,5.554c-3.692,3.414-7.51,6.943-12.686,5.799c-7.109-1.572-8.573-10.119-7.537-18.155
				c-3.461,0.109-6.881,2.036-10.475,4.06c-4.967,2.797-10.103,5.688-15.558,3.442c-5.178-2.13-7.611-7.826-7.025-16.023
				l-12.998,19.756c-4.391,6.675-11.285,15.345-20.42,13.604c-6.272-1.195-11.114-7.382-12.951-16.55
				c-0.517-2.581-0.844-5.198-0.984-7.823c-6.112,16.035-14.168,31.25-24.084,45.451c-3.089,4.424-6.997,8.973-12.562,9.175
				C1067.462,1418.775,1067.339,1418.776,1067.216,1418.776z M1075.555,1220.008c-3.078,0-6.352,1.009-9.172,2.98
				c-5.25,3.671-8.42,9.804-10.349,14.098c-6.425,14.311-8.921,30.174-10.661,45.186c-2.762,23.832-3.934,48.059-3.487,72.063
				c10.11-11.782,19.604-24.135,27.495-37.502c11.196-18.965,23.684-48.245,19.598-80.032c-0.988-7.688-3.186-12.438-6.916-14.943
				C1080.217,1220.617,1077.945,1220.008,1075.555,1220.008z"/>
			
				<linearGradient id="SVGID_00000026868705682747297220000004900876510711357078_" gradientUnits="userSpaceOnUse" x1="721.2376" y1="451.2965" x2="1279.3268" y2="451.2965">
				<stop  offset="0" style="stop-color:#DAE3FE"/>
				<stop  offset="1" style="stop-color:#E9EFFD"/>
			</linearGradient>
			<path style="fill:url(#SVGID_00000026868705682747297220000004900876510711357078_);" d="M1240.634,488.158l-477.939,15.75
				c-21.865,0.721-40.255-16.254-41.284-38.107l-0.129-2.738c-1.039-22.073,16.012-40.809,38.085-41.848l478.067-22.506
				c22.811-1.074,41.892,17.13,41.892,39.966v9.494C1279.327,469.753,1262.207,487.447,1240.634,488.158z"/>
		</g>
		<g>
			
				<linearGradient id="SVGID_00000003824090861261257660000015171841641365475994_" gradientUnits="userSpaceOnUse" x1="1726.8601" y1="148.165" x2="1742.0332" y2="461.7441">
				<stop  offset="0" style="stop-color:#E1473D"/>
				<stop  offset="1" style="stop-color:#E9605A"/>
			</linearGradient>
			<path style="fill:url(#SVGID_00000003824090861261257660000015171841641365475994_);" d="M1918.752,575.486h-359.365
				c-9.255,0-16.757-7.503-16.757-16.757V241.837h392.88v316.892C1935.509,567.983,1928.007,575.486,1918.752,575.486z"/>
			
				<linearGradient id="SVGID_00000101804155667091443370000010013833649075346586_" gradientUnits="userSpaceOnUse" x1="1899.7289" y1="104.7835" x2="1710.7383" y2="430.2672">
				<stop  offset="0" style="stop-color:#FE7062"/>
				<stop  offset="1" style="stop-color:#FF928E"/>
			</linearGradient>
			<path style="fill:url(#SVGID_00000101804155667091443370000010013833649075346586_);" d="M1918.752,534.244h-359.365
				c-9.255,0-16.757-7.503-16.757-16.757V240.945h392.88v276.542C1935.509,526.742,1928.007,534.244,1918.752,534.244z"/>
			<g>
				
					<linearGradient id="SVGID_00000059308179213506947520000015765104635181476781_" gradientUnits="userSpaceOnUse" x1="2130.4758" y1="92.5215" x2="1596.7313" y2="257.6205">
					<stop  offset="0" style="stop-color:#E1473D"/>
					<stop  offset="1" style="stop-color:#E9605A"/>
				</linearGradient>
				
					<rect x="1565.247" y="253.77" style="fill:url(#SVGID_00000059308179213506947520000015765104635181476781_);" width="13.526" height="22.995"/>
				
					<linearGradient id="SVGID_00000129898004857968153350000002886424430877850032_" gradientUnits="userSpaceOnUse" x1="2133.1333" y1="101.1134" x2="1599.3887" y2="266.2125">
					<stop  offset="0" style="stop-color:#E1473D"/>
					<stop  offset="1" style="stop-color:#E9605A"/>
				</linearGradient>
				
					<rect x="1595.681" y="253.77" style="fill:url(#SVGID_00000129898004857968153350000002886424430877850032_);" width="13.526" height="22.995"/>
				
					<linearGradient id="SVGID_00000015318771682141012130000009290451141302449337_" gradientUnits="userSpaceOnUse" x1="2135.4775" y1="108.7039" x2="1601.7356" y2="273.8022">
					<stop  offset="0" style="stop-color:#E1473D"/>
					<stop  offset="1" style="stop-color:#E9605A"/>
				</linearGradient>
				
					<rect x="1622.564" y="253.77" style="fill:url(#SVGID_00000015318771682141012130000009290451141302449337_);" width="13.526" height="22.995"/>
				
					<linearGradient id="SVGID_00000070084707295388997420000016635763628977425303_" gradientUnits="userSpaceOnUse" x1="2138.1353" y1="117.2958" x2="1604.3932" y2="282.3941">
					<stop  offset="0" style="stop-color:#E1473D"/>
					<stop  offset="1" style="stop-color:#E9605A"/>
				</linearGradient>
				
					<rect x="1652.999" y="253.77" style="fill:url(#SVGID_00000070084707295388997420000016635763628977425303_);" width="13.526" height="22.995"/>
				
					<linearGradient id="SVGID_00000088855676125959162130000008760240354265445290_" gradientUnits="userSpaceOnUse" x1="2140.4858" y1="124.8844" x2="1606.7416" y2="289.9833">
					<stop  offset="0" style="stop-color:#E1473D"/>
					<stop  offset="1" style="stop-color:#E9605A"/>
				</linearGradient>
				
					<rect x="1679.882" y="253.77" style="fill:url(#SVGID_00000088855676125959162130000008760240354265445290_);" width="13.526" height="22.995"/>
				
					<linearGradient id="SVGID_00000158002840521999859470000014356538100451713726_" gradientUnits="userSpaceOnUse" x1="2143.1436" y1="133.4762" x2="1609.3989" y2="298.5753">
					<stop  offset="0" style="stop-color:#E1473D"/>
					<stop  offset="1" style="stop-color:#E9605A"/>
				</linearGradient>
				
					<rect x="1710.316" y="253.77" style="fill:url(#SVGID_00000158002840521999859470000014356538100451713726_);" width="13.526" height="22.995"/>
				
					<linearGradient id="SVGID_00000160177776686056419130000003926420680985662115_" gradientUnits="userSpaceOnUse" x1="2145.4883" y1="141.0666" x2="1611.7463" y2="306.1648">
					<stop  offset="0" style="stop-color:#E1473D"/>
					<stop  offset="1" style="stop-color:#E9605A"/>
				</linearGradient>
				
					<rect x="1737.199" y="253.77" style="fill:url(#SVGID_00000160177776686056419130000003926420680985662115_);" width="13.526" height="22.995"/>
				
					<linearGradient id="SVGID_00000008108015317517921550000002874362190412230068_" gradientUnits="userSpaceOnUse" x1="2148.146" y1="149.6585" x2="1614.4039" y2="314.7567">
					<stop  offset="0" style="stop-color:#E1473D"/>
					<stop  offset="1" style="stop-color:#E9605A"/>
				</linearGradient>
				
					<rect x="1767.634" y="253.77" style="fill:url(#SVGID_00000008108015317517921550000002874362190412230068_);" width="13.526" height="22.995"/>
				
					<linearGradient id="SVGID_00000006667935576696489360000009731725076303933360_" gradientUnits="userSpaceOnUse" x1="2150.4963" y1="157.2471" x2="1616.7517" y2="322.3461">
					<stop  offset="0" style="stop-color:#E1473D"/>
					<stop  offset="1" style="stop-color:#E9605A"/>
				</linearGradient>
				
					<rect x="1794.517" y="253.77" style="fill:url(#SVGID_00000006667935576696489360000009731725076303933360_);" width="13.526" height="22.995"/>
				
					<linearGradient id="SVGID_00000018226479292098319540000017654360802813286057_" gradientUnits="userSpaceOnUse" x1="2153.1538" y1="165.839" x2="1619.4092" y2="330.9381">
					<stop  offset="0" style="stop-color:#E1473D"/>
					<stop  offset="1" style="stop-color:#E9605A"/>
				</linearGradient>
				
					<rect x="1824.951" y="253.77" style="fill:url(#SVGID_00000018226479292098319540000017654360802813286057_);" width="13.526" height="22.995"/>
				
					<linearGradient id="SVGID_00000040542519003241133900000005633065810848438457_" gradientUnits="userSpaceOnUse" x1="2155.499" y1="173.4292" x2="1621.757" y2="338.5275">
					<stop  offset="0" style="stop-color:#E1473D"/>
					<stop  offset="1" style="stop-color:#E9605A"/>
				</linearGradient>
				
					<rect x="1851.835" y="253.77" style="fill:url(#SVGID_00000040542519003241133900000005633065810848438457_);" width="13.526" height="22.995"/>
				
					<linearGradient id="SVGID_00000119839143287502208330000006928850500737656723_" gradientUnits="userSpaceOnUse" x1="2158.1565" y1="182.0211" x2="1624.4146" y2="347.1194">
					<stop  offset="0" style="stop-color:#E1473D"/>
					<stop  offset="1" style="stop-color:#E9605A"/>
				</linearGradient>
				
					<rect x="1882.269" y="253.77" style="fill:url(#SVGID_00000119839143287502208330000006928850500737656723_);" width="13.526" height="22.995"/>
			</g>
			<g>
				<g style="opacity:0.77;">
					<rect x="1717.485" y="288.663" style="fill:#FFFFFF;" width="40.826" height="40.826"/>
					<rect x="1767.103" y="288.663" style="fill:#FFFFFF;" width="40.826" height="40.826"/>
					<rect x="1816.215" y="288.663" style="fill:#FFFFFF;" width="40.826" height="40.826"/>
					<rect x="1864.923" y="288.663" style="fill:#FFFFFF;" width="40.826" height="40.826"/>
				</g>
				<g style="opacity:0.77;">
					<rect x="1570.097" y="339.999" style="fill:#FFFFFF;" width="40.826" height="40.826"/>
					<rect x="1619.21" y="339.999" style="fill:#FFFFFF;" width="40.826" height="40.826"/>
					<rect x="1667.918" y="339.999" style="fill:#FFFFFF;" width="40.826" height="40.826"/>
					<rect x="1717.434" y="339.999" style="fill:#FFFFFF;" width="40.826" height="40.826"/>
					<rect x="1767.052" y="339.999" style="fill:#FFFFFF;" width="40.826" height="40.826"/>
					<rect x="1816.164" y="339.999" style="fill:#FFFFFF;" width="40.826" height="40.826"/>
					<rect x="1864.872" y="339.999" style="fill:#FFFFFF;" width="40.826" height="40.826"/>
				</g>
				<g>
					<rect x="1571.31" y="388.909" style="opacity:0.77;fill:#FFFFFF;" width="40.826" height="40.826"/>
					<rect x="1620.422" y="388.909" style="opacity:0.77;fill:#FFFFFF;" width="40.826" height="40.826"/>
					
						<linearGradient id="SVGID_00000147218857773499295730000014683850692430804864_" gradientUnits="userSpaceOnUse" x1="1190.7598" y1="40.8514" x2="1692.8407" y2="411.7578">
						<stop  offset="0" style="stop-color:#E1473D"/>
						<stop  offset="1" style="stop-color:#E9605A"/>
					</linearGradient>
					
						<rect x="1669.13" y="388.909" style="fill:url(#SVGID_00000147218857773499295730000014683850692430804864_);" width="40.826" height="40.826"/>
					<rect x="1718.647" y="388.909" style="opacity:0.77;fill:#FFFFFF;" width="40.826" height="40.826"/>
					<rect x="1768.265" y="388.909" style="opacity:0.77;fill:#FFFFFF;" width="40.826" height="40.826"/>
					<rect x="1817.377" y="388.909" style="opacity:0.77;fill:#FFFFFF;" width="40.826" height="40.826"/>
					<rect x="1866.085" y="388.909" style="opacity:0.77;fill:#FFFFFF;" width="40.826" height="40.826"/>
				</g>
				<g style="opacity:0.77;">
					<rect x="1572.523" y="437.213" style="fill:#FFFFFF;" width="40.826" height="40.826"/>
					<rect x="1621.635" y="437.213" style="fill:#FFFFFF;" width="40.826" height="40.826"/>
					<rect x="1670.343" y="437.213" style="fill:#FFFFFF;" width="40.826" height="40.826"/>
					<rect x="1719.86" y="437.213" style="fill:#FFFFFF;" width="40.826" height="40.826"/>
					<rect x="1769.477" y="437.213" style="fill:#FFFFFF;" width="40.826" height="40.826"/>
					<rect x="1818.59" y="437.213" style="fill:#FFFFFF;" width="40.826" height="40.826"/>
					<rect x="1867.298" y="437.213" style="fill:#FFFFFF;" width="40.826" height="40.826"/>
				</g>
				<g style="opacity:0.77;">
					<rect x="1572.523" y="485.408" style="fill:#FFFFFF;" width="40.826" height="40.826"/>
					<rect x="1621.635" y="485.408" style="fill:#FFFFFF;" width="40.826" height="40.826"/>
					<rect x="1670.343" y="485.408" style="fill:#FFFFFF;" width="40.826" height="40.826"/>
				</g>
			</g>
			<g>
				
					<linearGradient id="SVGID_00000160905979800602506070000013392571180957898659_" gradientUnits="userSpaceOnUse" x1="1984.5197" y1="214.2924" x2="1306.0326" y2="268.5711">
					<stop  offset="0" style="stop-color:#E1473D"/>
					<stop  offset="1" style="stop-color:#E9605A"/>
				</linearGradient>
				<path style="fill:url(#SVGID_00000160905979800602506070000013392571180957898659_);" d="M1591.953,235.467h-17.367
					c-3.999,0-7.27,3.271-7.27,7.27v16.155h5.25v-10.501c0-3.998,3.271-7.27,7.27-7.27h17.367c0.653,0,1.284,0.095,1.887,0.259
					C1598.45,238.025,1595.487,235.467,1591.953,235.467z"/>
				
					<linearGradient id="SVGID_00000049202091180020271060000001879623109930591891_" gradientUnits="userSpaceOnUse" x1="1984.7344" y1="216.9744" x2="1306.2473" y2="271.2531">
					<stop  offset="0" style="stop-color:#E1473D"/>
					<stop  offset="1" style="stop-color:#E9605A"/>
				</linearGradient>
				<path style="fill:url(#SVGID_00000049202091180020271060000001879623109930591891_);" d="M1625.692,235.467h-17.367
					c-3.999,0-7.27,3.271-7.27,7.27v16.155h5.25v-10.501c0-3.998,3.271-7.27,7.27-7.27h17.367c0.653,0,1.284,0.095,1.887,0.259
					C1632.189,238.025,1629.227,235.467,1625.692,235.467z"/>
				
					<linearGradient id="SVGID_00000005973187861308970870000013234055835694947237_" gradientUnits="userSpaceOnUse" x1="1984.9106" y1="219.2037" x2="1306.4255" y2="273.4822">
					<stop  offset="0" style="stop-color:#E1473D"/>
					<stop  offset="1" style="stop-color:#E9605A"/>
				</linearGradient>
				<path style="fill:url(#SVGID_00000005973187861308970870000013234055835694947237_);" d="M1653.734,235.467h-17.367
					c-3.998,0-7.27,3.271-7.27,7.27v16.155h5.25v-10.501c0-3.998,3.271-7.27,7.27-7.27h17.367c0.653,0,1.283,0.095,1.887,0.259
					C1660.231,238.025,1657.269,235.467,1653.734,235.467z"/>
				
					<linearGradient id="SVGID_00000161627768677238999630000002236189419342634144_" gradientUnits="userSpaceOnUse" x1="1985.0955" y1="221.5" x2="1306.6084" y2="275.7787">
					<stop  offset="0" style="stop-color:#E1473D"/>
					<stop  offset="1" style="stop-color:#E9605A"/>
				</linearGradient>
				<path style="fill:url(#SVGID_00000161627768677238999630000002236189419342634144_);" d="M1682.623,235.467h-17.367
					c-3.998,0-7.27,3.271-7.27,7.27v16.155h5.25v-10.501c0-3.998,3.271-7.27,7.27-7.27h17.367c0.653,0,1.284,0.095,1.887,0.259
					C1689.12,238.025,1686.158,235.467,1682.623,235.467z"/>
				
					<linearGradient id="SVGID_00000063631188595096780070000009929406554483452842_" gradientUnits="userSpaceOnUse" x1="1985.2651" y1="223.6229" x2="1306.7781" y2="277.9016">
					<stop  offset="0" style="stop-color:#E1473D"/>
					<stop  offset="1" style="stop-color:#E9605A"/>
				</linearGradient>
				<path style="fill:url(#SVGID_00000063631188595096780070000009929406554483452842_);" d="M1709.329,235.467h-17.367
					c-3.998,0-7.27,3.271-7.27,7.27v16.155h5.25v-10.501c0-3.998,3.271-7.27,7.27-7.27h17.367c0.653,0,1.284,0.095,1.887,0.259
					C1715.826,238.025,1712.864,235.467,1709.329,235.467z"/>
				
					<linearGradient id="SVGID_00000006674757860402502700000006526456913937425572_" gradientUnits="userSpaceOnUse" x1="1985.449" y1="225.9193" x2="1306.9619" y2="280.198">
					<stop  offset="0" style="stop-color:#E1473D"/>
					<stop  offset="1" style="stop-color:#E9605A"/>
				</linearGradient>
				<path style="fill:url(#SVGID_00000006674757860402502700000006526456913937425572_);" d="M1738.218,235.467h-17.367
					c-3.998,0-7.27,3.271-7.27,7.27v16.155h5.25v-10.501c0-3.998,3.271-7.27,7.27-7.27h17.367c0.653,0,1.284,0.095,1.887,0.259
					C1744.715,238.025,1741.753,235.467,1738.218,235.467z"/>
				
					<linearGradient id="SVGID_00000003809736265140107560000010458383758752926115_" gradientUnits="userSpaceOnUse" x1="1985.6272" y1="228.1484" x2="1307.1403" y2="282.4271">
					<stop  offset="0" style="stop-color:#E1473D"/>
					<stop  offset="1" style="stop-color:#E9605A"/>
				</linearGradient>
				<path style="fill:url(#SVGID_00000003809736265140107560000010458383758752926115_);" d="M1766.26,235.467h-17.367
					c-3.999,0-7.27,3.271-7.27,7.27v16.155h5.25v-10.501c0-3.998,3.271-7.27,7.27-7.27h17.367c0.653,0,1.283,0.095,1.887,0.259
					C1772.757,238.025,1769.795,235.467,1766.26,235.467z"/>
				
					<linearGradient id="SVGID_00000056389996449588591980000006140305294856428716_" gradientUnits="userSpaceOnUse" x1="1985.8264" y1="230.6376" x2="1307.3394" y2="284.9163">
					<stop  offset="0" style="stop-color:#E1473D"/>
					<stop  offset="1" style="stop-color:#E9605A"/>
				</linearGradient>
				<path style="fill:url(#SVGID_00000056389996449588591980000006140305294856428716_);" d="M1797.575,235.467h-17.367
					c-3.998,0-7.27,3.271-7.27,7.27v16.155h5.25v-10.501c0-3.998,3.271-7.27,7.27-7.27h17.367c0.653,0,1.283,0.095,1.887,0.259
					C1804.072,238.025,1801.109,235.467,1797.575,235.467z"/>
				
					<linearGradient id="SVGID_00000181076008522209578450000003860640689766728339_" gradientUnits="userSpaceOnUse" x1="1985.9769" y1="232.5268" x2="1307.4918" y2="286.8054">
					<stop  offset="0" style="stop-color:#E1473D"/>
					<stop  offset="1" style="stop-color:#E9605A"/>
				</linearGradient>
				<path style="fill:url(#SVGID_00000181076008522209578450000003860640689766728339_);" d="M1824.576,235.208h-17.367
					c-3.999,0-7.27,3.271-7.27,7.27v16.155h5.25v-10.501c0-3.998,3.271-7.27,7.27-7.27h17.367c0.653,0,1.283,0.095,1.887,0.259
					C1831.073,237.766,1828.111,235.208,1824.576,235.208z"/>
				
					<linearGradient id="SVGID_00000083088745040807956450000010480660832443758503_" gradientUnits="userSpaceOnUse" x1="1986.1553" y1="234.756" x2="1307.6702" y2="289.0345">
					<stop  offset="0" style="stop-color:#E1473D"/>
					<stop  offset="1" style="stop-color:#E9605A"/>
				</linearGradient>
				<path style="fill:url(#SVGID_00000083088745040807956450000010480660832443758503_);" d="M1852.619,235.208h-17.367
					c-3.999,0-7.27,3.271-7.27,7.27v16.155h5.25v-10.501c0-3.998,3.271-7.27,7.27-7.27h17.367c0.653,0,1.284,0.095,1.887,0.259
					C1859.116,237.766,1856.153,235.208,1852.619,235.208z"/>
				
					<linearGradient id="SVGID_00000035491892855042163010000015903346299898365326_" gradientUnits="userSpaceOnUse" x1="1986.5608" y1="239.8229" x2="1308.0757" y2="294.1014">
					<stop  offset="0" style="stop-color:#E1473D"/>
					<stop  offset="1" style="stop-color:#E9605A"/>
				</linearGradient>
				<path style="fill:url(#SVGID_00000035491892855042163010000015903346299898365326_);" d="M1908.156,235.865h-17.367
					c-3.999,0-7.27,3.271-7.27,7.27v16.155h5.25v-10.501c0-3.998,3.271-7.27,7.27-7.27h17.367c0.653,0,1.283,0.095,1.887,0.259
					C1914.652,238.422,1911.69,235.865,1908.156,235.865z"/>
				
					<linearGradient id="SVGID_00000159435727001219725170000011912993282927479986_" gradientUnits="userSpaceOnUse" x1="1986.3551" y1="237.2451" x2="1307.8679" y2="291.5238">
					<stop  offset="0" style="stop-color:#E1473D"/>
					<stop  offset="1" style="stop-color:#E9605A"/>
				</linearGradient>
				<path style="fill:url(#SVGID_00000159435727001219725170000011912993282927479986_);" d="M1883.933,235.208h-17.367
					c-3.999,0-7.27,3.271-7.27,7.27v16.155h5.25v-10.501c0-3.998,3.271-7.27,7.27-7.27h17.367c0.653,0,1.284,0.095,1.887,0.259
					C1890.43,237.766,1887.467,235.208,1883.933,235.208z"/>
			</g>
		</g>
		<g>
			<g>
				
					<linearGradient id="SVGID_00000174597791551213137980000010566993302717776820_" gradientUnits="userSpaceOnUse" x1="1328.5004" y1="570.7567" x2="1477.036" y2="570.7567">
					<stop  offset="0" style="stop-color:#09005D"/>
					<stop  offset="1" style="stop-color:#1A0F91"/>
				</linearGradient>
				<path style="fill:url(#SVGID_00000174597791551213137980000010566993302717776820_);" d="M1331.029,634.554
					c-1.345,0-2.456-1.07-2.498-2.424c-0.035-1.146-0.763-28.404,7.264-57.52c10.773-39.075,32.343-62.229,62.378-66.957
					c14.658-2.307,27.715,1.15,38.813,10.278c15.373,12.644,26.786,35.724,33.922,68.599c5.271,24.282,6.118,45.221,6.125,45.429
					c0.053,1.38-1.023,2.54-2.403,2.593c-1.385,0.028-2.541-1.024-2.593-2.403c-0.031-0.815-3.521-81.818-38.231-110.36
					c-9.945-8.178-21.672-11.274-34.855-9.196c-28.35,4.463-47.977,25.776-58.335,63.347c-7.829,28.395-7.095,55.766-7.086,56.039
					c0.042,1.38-1.043,2.533-2.423,2.575C1331.081,634.553,1331.055,634.554,1331.029,634.554z"/>
				
					<linearGradient id="SVGID_00000078754777788255271630000011532822576434658705_" gradientUnits="userSpaceOnUse" x1="1516.8018" y1="654.8644" x2="735.553" y2="1540.0015">
					<stop  offset="0" style="stop-color:#FE7062"/>
					<stop  offset="1" style="stop-color:#FF928E"/>
				</linearGradient>
				<path style="fill:url(#SVGID_00000078754777788255271630000011532822576434658705_);" d="M1197.723,981.727l54.38-375.004
					l204.284-3.435l58.913,401.317l-299.888-2.035C1204.498,1002.57,1196.13,992.71,1197.723,981.727z"/>
				
					<linearGradient id="SVGID_00000123426509268384145880000008321580395643353242_" gradientUnits="userSpaceOnUse" x1="1260.7545" y1="390.4216" x2="1663.8451" y2="1084.4012">
					<stop  offset="0" style="stop-color:#E1473D"/>
					<stop  offset="1" style="stop-color:#E9605A"/>
				</linearGradient>
				<path style="fill:url(#SVGID_00000123426509268384145880000008321580395643353242_);" d="M1496.062,606.723l-39.675-3.435
					l51.409,401.266l45.311-1.671c6.486-0.239,11.268-6.149,10.148-12.542L1496.062,606.723z"/>
				
					<linearGradient id="SVGID_00000144299660048817097880000013798750662920566416_" gradientUnits="userSpaceOnUse" x1="1284.6044" y1="569.8987" x2="1433.14" y2="569.8987">
					<stop  offset="0" style="stop-color:#09005D"/>
					<stop  offset="1" style="stop-color:#1A0F91"/>
				</linearGradient>
				<path style="fill:url(#SVGID_00000144299660048817097880000013798750662920566416_);" d="M1287.133,633.695
					c-1.345,0-2.456-1.07-2.498-2.424c-0.035-1.146-0.763-28.404,7.264-57.52c10.773-39.075,32.343-62.228,62.378-66.957
					c14.658-2.306,27.716,1.15,38.813,10.278c15.373,12.644,26.786,35.724,33.921,68.598c5.271,24.282,6.118,45.221,6.125,45.429
					c0.053,1.38-1.023,2.541-2.403,2.593c-1.391,0.065-2.541-1.024-2.593-2.403c-0.031-0.815-3.521-81.817-38.231-110.36
					c-9.945-8.178-21.672-11.271-34.855-9.196c-28.35,4.463-47.977,25.775-58.335,63.346c-7.829,28.395-7.095,55.766-7.086,56.039
					c0.042,1.38-1.043,2.533-2.423,2.575C1287.185,633.694,1287.159,633.695,1287.133,633.695z"/>
			</g>
			<g>
				
					<linearGradient id="SVGID_00000081616118097204966720000003459003171166039470_" gradientUnits="userSpaceOnUse" x1="-3342.0168" y1="587.8402" x2="-3456.0107" y2="772.3309" gradientTransform="matrix(-1 0 0 1 -2091.0396 0)">
					<stop  offset="0" style="stop-color:#09005D"/>
					<stop  offset="1" style="stop-color:#1A0F91"/>
				</linearGradient>
				<path style="fill:url(#SVGID_00000081616118097204966720000003459003171166039470_);" d="M1853.336,1509.036
					c0,0,5.663,8.927,7.088,33.919c0.133,2.329-1.712,4.313-4.044,4.313h-44.29c-1.782,0-3.054-1.747-2.483-3.436
					c2.595-7.681,10.443-26.409,27.952-37.111L1853.336,1509.036z"/>
				
					<linearGradient id="SVGID_00000007423891415471222050000003679598266406890171_" gradientUnits="userSpaceOnUse" x1="-3946.3003" y1="1503.3123" x2="-3925.6318" y2="1503.3123" gradientTransform="matrix(-1 0 0 1 -2091.0396 0)">
					<stop  offset="0" style="stop-color:#FF928E"/>
					<stop  offset="1" style="stop-color:#FEB3B1"/>
				</linearGradient>
				<path style="fill:url(#SVGID_00000007423891415471222050000003679598266406890171_);" d="M1855.261,1492.101l-2.505,21.005
					c-0.216,1.812-1.636,3.263-3.449,3.472c-2.422,0.279-5.944,0.476-9.365-0.089c-3.111-0.513-5.349-3.283-5.349-6.436v-20.28
					L1855.261,1492.101z"/>
				
					<linearGradient id="SVGID_00000068678745939949135690000005123735546546399104_" gradientUnits="userSpaceOnUse" x1="-3253.646" y1="642.4462" x2="-3367.6401" y2="826.937" gradientTransform="matrix(-1 0 0 1 -2091.0396 0)">
					<stop  offset="0" style="stop-color:#09005D"/>
					<stop  offset="1" style="stop-color:#1A0F91"/>
				</linearGradient>
				<path style="fill:url(#SVGID_00000068678745939949135690000005123735546546399104_);" d="M1743.754,1506.72
					c0,0,8.477,13.177,8.296,31.264c-0.042,4.26-3.609,7.653-7.87,7.653h-68.788c-3.221,0-4.529-4.139-1.893-5.99
					c13.017-9.141,38.6-26.216,57.104-32.927H1743.754z"/>
				
					<linearGradient id="SVGID_00000168819690820532000320000009832565795340363930_" gradientUnits="userSpaceOnUse" x1="-3841.8777" y1="1494.1344" x2="-3821.3228" y2="1494.1344" gradientTransform="matrix(-1 0 0 1 -2091.0396 0)">
					<stop  offset="0" style="stop-color:#FF928E"/>
					<stop  offset="1" style="stop-color:#FEB3B1"/>
				</linearGradient>
				<path style="fill:url(#SVGID_00000168819690820532000320000009832565795340363930_);" d="M1750.838,1484.036l-5.343,25.942
					c-0.598,2.902-3.436,4.853-6.327,4.207c-1.758-0.392-3.831-1.144-6.047-2.529c-2.106-1.317-3.173-3.822-2.743-6.267
					l5.527-31.428L1750.838,1484.036z"/>
				
					<linearGradient id="SVGID_00000123429204100510101890000005780257415068510373_" gradientUnits="userSpaceOnUse" x1="1913.183" y1="1085.9772" x2="1724.1927" y2="1520.9551">
					<stop  offset="0" style="stop-color:#09005D"/>
					<stop  offset="1" style="stop-color:#1A0F91"/>
				</linearGradient>
				<path style="fill:url(#SVGID_00000123429204100510101890000005780257415068510373_);" d="M1845.446,1123.354
					c0,0,18.579,16.379,22.075,36.086c3.497,19.706-9.906,340-9.906,340s-18.578,3.091-28.155-2.712
					c0,0-11.359-207.868-19.993-255.902c0,0-45.279,215.324-57.824,254.231c0,0-17.898,2.177-23.67-1.228
					c0,0,11.861-279.12,26.764-328.744L1845.446,1123.354z"/>
				<path style="fill:#666694;" d="M1810.009,1234.025c0.875,0,1.675-0.588,1.906-1.474l7.698-29.53l16.401-10.521
					c0.916-0.588,1.183-1.807,0.595-2.724c-0.588-0.916-1.81-1.186-2.724-0.593l-17.05,10.937c-0.417,0.267-0.719,0.68-0.843,1.16
					l-7.892,30.274c-0.275,1.055,0.357,2.131,1.411,2.406C1809.676,1234.005,1809.844,1234.025,1810.009,1234.025z"/>
				
					<linearGradient id="SVGID_00000095329893798912886870000010278372907850565525_" gradientUnits="userSpaceOnUse" x1="1591.26" y1="968.8724" x2="1760.7581" y2="968.8724">
					<stop  offset="0" style="stop-color:#DAE3FE"/>
					<stop  offset="1" style="stop-color:#E9EFFD"/>
				</linearGradient>
				<path style="fill:url(#SVGID_00000095329893798912886870000010278372907850565525_);" d="M1662.108,938.282
					c78.21-6.493,98.651,9.692,98.651,9.692l-37.584,59.336c0,0-76.848-1.518-131.914-43.959
					c10.306-11.099,17.463-23.364,22.053-32.914C1627.512,936.336,1643.864,939.796,1662.108,938.282z"/>
				
					<linearGradient id="SVGID_00000166664336319542150160000008073919310419016623_" gradientUnits="userSpaceOnUse" x1="-3704.3528" y1="892.2659" x2="-3627.9612" y2="892.2659" gradientTransform="matrix(-1 0 0 1 -2091.0396 0)">
					<stop  offset="0" style="stop-color:#FF928E"/>
					<stop  offset="1" style="stop-color:#FEB3B1"/>
				</linearGradient>
				<path style="fill:url(#SVGID_00000166664336319542150160000008073919310419016623_);" d="M1539.632,823.481
					c0.105-2.506,3.502-3.188,4.566-0.917l9.98,21.295c1.928,4.115,2.546,8.722,1.771,13.199l-3.5,12.395
					c-1.047,6.045,0.532,12.238,4.364,17.029c9.17,11.464,28.699,32.4,56.501,43.953c-4.59,9.551-11.748,21.816-22.053,32.914
					c-20.204-15.572-37.48-36.647-46.946-65.188c-4.535-1.393-7.565-5.663-7.385-10.403L1539.632,823.481z"/>
				
					<linearGradient id="SVGID_00000141450711247738577110000003147414949039376796_" gradientUnits="userSpaceOnUse" x1="1563.3889" y1="1047.0479" x2="1852.8301" y2="1047.0479">
					<stop  offset="0" style="stop-color:#DAE3FE"/>
					<stop  offset="1" style="stop-color:#E9EFFD"/>
				</linearGradient>
				<path style="fill:url(#SVGID_00000141450711247738577110000003147414949039376796_);" d="M1636.364,972.683
					c27.533-29.668,79.976-43.071,110.34-48.577c13.302-2.412,26.415,4.99,31.128,17.661
					c13.664,36.731,50.827,132.292,58.029,148.716c5.91,13.474,12.08,26.634,16.001,34.861c2.342,4.915,0.296,10.797-4.609,13.161
					c-25.546,12.314-71.513,26.245-90.149,31.68c-4.099,1.196-8.181-1.882-8.181-6.152c0-3.621-0.984-7.175-2.847-10.28
					l-70.578-117.612c-43.99,48.776-82.514,53.236-112.109,42.56c4.976-15.379,8.232-30.786,9.794-46.222
					C1616.903,1024.988,1636.364,972.683,1636.364,972.683z"/>
				
					<linearGradient id="SVGID_00000098917787060918285360000000701088044311357349_" gradientUnits="userSpaceOnUse" x1="-3531.3767" y1="908.9205" x2="-3696.438" y2="1114.2725" gradientTransform="matrix(-1 0 0 1 -2091.0396 0)">
					<stop  offset="0" style="stop-color:#FF928E"/>
					<stop  offset="1" style="stop-color:#FEB3B1"/>
				</linearGradient>
				<path style="fill:url(#SVGID_00000098917787060918285360000000701088044311357349_);" d="M1500.92,1024.292l7.89-10.52
					c25.543,17.543,46.894,21.701,64.373,18.706c-1.562,15.436-4.818,30.844-9.794,46.222
					C1524.402,1064.635,1500.92,1024.292,1500.92,1024.292z"/>
				
					<linearGradient id="SVGID_00000156572657660341580590000005028580164577484726_" gradientUnits="userSpaceOnUse" x1="-3500.082" y1="934.0751" x2="-3665.1431" y2="1139.4268" gradientTransform="matrix(-1 0 0 1 -2091.0396 0)">
					<stop  offset="0" style="stop-color:#FF928E"/>
					<stop  offset="1" style="stop-color:#FEB3B1"/>
				</linearGradient>
				<path style="fill:url(#SVGID_00000156572657660341580590000005028580164577484726_);" d="M1506.483,1024.482l-44.451,1.733
					l-40.926-22.858c5.874-3.683,39.095,3.844,39.095,3.844s34.728-5.252,44.127-5.264c7.807-0.01,6.691,11.216,6.089,15.02
					c-0.123,0.776-0.224,1.243-0.224,1.243L1506.483,1024.482z"/>
				
					<linearGradient id="SVGID_00000055670839569810952640000002466707862353282992_" gradientUnits="userSpaceOnUse" x1="-3717.0715" y1="784.8165" x2="-3876.9338" y2="1078.548" gradientTransform="matrix(-1 0 0 1 -2091.0396 0)">
					<stop  offset="0" style="stop-color:#FF928E"/>
					<stop  offset="1" style="stop-color:#FEB3B1"/>
				</linearGradient>
				<path style="fill:url(#SVGID_00000055670839569810952640000002466707862353282992_);" d="M1704.939,869.619l23.453,57.231
					c0,0-26.948,18.652-48.628,16.877l-11.705-51.461L1704.939,869.619z"/>
				<g>
					
						<linearGradient id="SVGID_00000059290620549789375720000012975053345494472882_" gradientUnits="userSpaceOnUse" x1="-3439.387" y1="1014.473" x2="-3510.0371" y2="1107.9374" gradientTransform="matrix(-0.817 -0.5767 -0.5767 0.817 -548.5187 -1973.3862)">
						<stop  offset="0" style="stop-color:#FF928E"/>
						<stop  offset="1" style="stop-color:#FEB3B1"/>
					</linearGradient>
					<path style="fill:url(#SVGID_00000059290620549789375720000012975053345494472882_);" d="M1665.322,830.604
						c-0.537,0.761-16.967,60.115-16.967,60.115l34.09,8.661l23.93-53.942C1706.375,845.438,1674.315,817.863,1665.322,830.604z"/>
					
						<linearGradient id="SVGID_00000059269401180652732040000018342690332730919553_" gradientUnits="userSpaceOnUse" x1="-3493.3435" y1="1037.0189" x2="-3408.9507" y2="1037.0189" gradientTransform="matrix(-0.817 -0.5767 -0.5767 0.817 -548.5187 -1973.3862)">
						<stop  offset="0" style="stop-color:#09005D"/>
						<stop  offset="1" style="stop-color:#1A0F91"/>
					</linearGradient>
					<path style="fill:url(#SVGID_00000059269401180652732040000018342690332730919553_);" d="M1693.538,853.633l-10.374,29.383
						c-0.133,0.377-0.311,0.725-0.541,1.052c-1.408,2-6.755,8.526-13.099,2.648c-5.756-5.334-11.088-10.116-16.013-10.985
						c-2.211-0.39-4.353,0.959-4.951,3.123c-1.491,5.393-4.627,17.608-5.732,28.636c-0.224,2.238,1.321,4.26,3.531,4.68
						c6.658,1.264,20.775,3.538,32.561,2.707c1.597-0.112,3.002-1.07,3.668-2.526c3.248-7.097,13.199-28.63,16.9-34.202
						c3.474-5.23,11.99-5.083,15.561-4.766c1.171,0.104,2.323-0.273,3.206-1.049c3.125-2.739,9.071-9.731,0.706-18.102
						c-1.751-1.752-1.704-4.578,0.101-6.275c3.592-3.378,7.434-9.368,1.449-16.797c-6.083-7.552-14.114-6.349-19.034-4.555
						c-1.989,0.726-4.16-0.115-5.241-1.936c-0.616-1.036-1.69-1.821-3.552-1.661c-2.509,0.216-4.619-1.878-4.574-4.396
						c0.087-4.838-1.645-10.95-10.037-13.562c-14.892-4.635-24.178,9.752-25.098,20.487c-0.92,10.735,15.511,14.842,25.173,14.118
						c7.346-0.551,12.801,6.731,14.993,10.253C1693.836,851.026,1693.975,852.394,1693.538,853.633z"/>
					
						<linearGradient id="SVGID_00000034076045141474835830000016499528798849350281_" gradientUnits="userSpaceOnUse" x1="-3542.8621" y1="1088.4893" x2="-3486.1946" y2="1030.3501" gradientTransform="matrix(-0.817 -0.5767 -0.5767 0.817 -548.5187 -1973.3862)">
						<stop  offset="0" style="stop-color:#FF928E"/>
						<stop  offset="1" style="stop-color:#FEB3B1"/>
					</linearGradient>
					<path style="fill:url(#SVGID_00000034076045141474835830000016499528798849350281_);" d="M1695.604,888.81
						c0,0,2.405-18.637,10.158-19.55c7.753-0.913,15.299,5.458,7.591,15.919C1703.765,898.191,1695.604,888.81,1695.604,888.81z"/>
				</g>
			</g>
		</g>
		<g>
			<g>
				
					<linearGradient id="SVGID_00000173161578913438383590000016553062940611498669_" gradientUnits="userSpaceOnUse" x1="769.2385" y1="1039.6511" x2="645.2384" y2="1367.6519">
					<stop  offset="0" style="stop-color:#FE7062"/>
					<stop  offset="1" style="stop-color:#FF928E"/>
				</linearGradient>
				<path style="fill:url(#SVGID_00000173161578913438383590000016553062940611498669_);" d="M652.135,1164.814l74.017-13.649
					c1.068-0.196,1.968,0.483,2.214,1.541l25.826,112.218c0.128,0.552-0.014,1.131-0.333,1.6c-0.319,0.468-0.836,0.781-1.395,0.865
					l-100.182,14.907c-0.584,0.087-0.652-0.085-1.1-0.47c-0.447-0.386-0.179-0.947-0.179-1.538v-113.476
					C651,1165.831,651.171,1164.991,652.135,1164.814z"/>
				
					<linearGradient id="SVGID_00000070078578830408190490000013299404766247030959_" gradientUnits="userSpaceOnUse" x1="5404.9849" y1="1160.0061" x2="5404.249" y2="1169.9833" gradientTransform="matrix(-1 0 0 1 6114.2329 0)">
					<stop  offset="0" style="stop-color:#A737D5"/>
					<stop  offset="1" style="stop-color:#EF497A"/>
				</linearGradient>
				<path style="fill:url(#SVGID_00000070078578830408190490000013299404766247030959_);" d="M706.615,1160.342
					c0,1.468,1.19,2.658,2.658,2.658c1.468,0,2.658-1.19,2.658-2.658c0-1.468-1.19-2.658-2.658-2.658
					C707.805,1157.684,706.615,1158.874,706.615,1160.342z"/>
				
					<linearGradient id="SVGID_00000124132376812985052870000004252827993402787733_" gradientUnits="userSpaceOnUse" x1="5441.6221" y1="1167.8568" x2="5440.8862" y2="1177.834" gradientTransform="matrix(-1 0 0 1 6114.2329 0)">
					<stop  offset="0" style="stop-color:#A737D5"/>
					<stop  offset="1" style="stop-color:#EF497A"/>
				</linearGradient>
				<path style="fill:url(#SVGID_00000124132376812985052870000004252827993402787733_);" d="M669.978,1168.193
					c0,1.468,1.19,2.658,2.658,2.658c1.468,0,2.658-1.19,2.658-2.658c0-1.468-1.19-2.658-2.658-2.658
					C671.168,1165.535,669.978,1166.725,669.978,1168.193z"/>
			</g>
			<path style="fill:#FFFFFF;" d="M672.636,1168.568c-0.207,0-0.375-0.168-0.375-0.375c0-1.947,0.127-47.715,12.315-49.045
				c1.991-0.214,4.103,0.664,6.279,2.615c9.945,8.919,18.793,37.618,18.793,38.579c0,0.207-0.168,0.375-0.375,0.375
				c-0.198,0-0.36-0.153-0.374-0.348c-0.113-0.686-3.327-11.211-7.902-21.249c-5.968-13.093-11.599-19.749-16.34-19.227
				c-4.71,0.514-8.222,8.983-10.156,24.494c-1.477,11.844-1.49,23.687-1.49,23.805
				C673.011,1168.4,672.843,1168.568,672.636,1168.568z"/>
			
				<linearGradient id="SVGID_00000011028791265530875130000008865666094326881186_" gradientUnits="userSpaceOnUse" x1="5487.229" y1="1063.2417" x2="5474.6538" y2="933.8961" gradientTransform="matrix(-1 0 0 1 6114.2329 0)">
				<stop  offset="0" style="stop-color:#FF928E"/>
				<stop  offset="1" style="stop-color:#FEB3B1"/>
			</linearGradient>
			<path style="fill:url(#SVGID_00000011028791265530875130000008865666094326881186_);" d="M571.401,983.474
				c0,0,40.662,92.778,98.47,107.142c11.187,2.179,24.331,1.222,30.207,4.875c6.678,4.151-1.443,15.339-4.692,23.821
				c-3.248,8.481-4.51,4.511-5.955,1.804c-1.444-2.707,4.632-11.248-3.308-14.617c-7.94-3.368-5.534,1.804-1.805,6.255
				c3.73,4.451,3.609,11.309,3.369,11.67s-6.256-2.646-11.91-5.293c-4.852-2.271-7.571-8.515-8.247-10.245
				c-11.447-1.334-83.086-12.6-113.541-87.937C553.988,1020.949,551.056,946.156,571.401,983.474z"/>
			
				<linearGradient id="SVGID_00000021815465613946157400000011147762066224726450_" gradientUnits="userSpaceOnUse" x1="401.9822" y1="1183.7202" x2="430.962" y2="1183.7202">
				<stop  offset="0" style="stop-color:#4042E2"/>
				<stop  offset="1" style="stop-color:#4F52FF"/>
			</linearGradient>
			<path style="fill:url(#SVGID_00000021815465613946157400000011147762066224726450_);" d="M402.358,1202.694
				c-0.02,0-0.039-0.001-0.059-0.005c-0.205-0.032-0.344-0.224-0.312-0.429c0.2-1.265,4.995-31.036,14.787-36.614
				c1.83-1.042,3.735-1.18,5.666-0.413c5.6,2.229,8.547,9.031,8.523,19.672c-0.018,7.954-1.693,15.355-1.71,15.43
				c-0.046,0.202-0.247,0.333-0.45,0.281c-0.202-0.046-0.328-0.247-0.282-0.449c0.067-0.29,6.507-29.115-6.359-34.236
				c-1.731-0.689-3.372-0.569-5.017,0.368c-9.481,5.401-14.369,35.772-14.417,36.079
				C402.699,1202.563,402.539,1202.694,402.358,1202.694z"/>
			
				<linearGradient id="SVGID_00000151540214364158859130000014468636620769583797_" gradientUnits="userSpaceOnUse" x1="5623.7334" y1="866.9963" x2="5643.7246" y2="894.3019" gradientTransform="matrix(-0.997 0.0777 0.0777 0.997 5966.1792 -113.0097)">
				<stop  offset="0" style="stop-color:#4042E2"/>
				<stop  offset="1" style="stop-color:#4F52FF"/>
			</linearGradient>
			<polygon style="fill:url(#SVGID_00000151540214364158859130000014468636620769583797_);" points="389.54,1200.2 
				437.549,1195.763 448.236,1201.689 439.077,1213.148 395.227,1208.682 			"/>
			
				<linearGradient id="SVGID_00000023976874155743423360000001319843308184424585_" gradientUnits="userSpaceOnUse" x1="359.0553" y1="1503.1566" x2="396.4829" y2="1503.1566">
				<stop  offset="0" style="stop-color:#4042E2"/>
				<stop  offset="1" style="stop-color:#4F52FF"/>
			</linearGradient>
			<path style="fill:url(#SVGID_00000023976874155743423360000001319843308184424585_);" d="M396.477,1492.527l-0.794,18.367
				c-0.151,3.484-2.655,6.425-6.079,7.089c-5.78,1.121-15.087,2.534-24.321,2.28c-4.053-0.111-6.98-3.978-6.055-7.926
				c1.685-7.198,4.947-18.06,10.351-24.724l20.183-1.574C393.493,1485.749,396.639,1488.787,396.477,1492.527z"/>
			
				<linearGradient id="SVGID_00000065076173629316464080000008264008584733019325_" gradientUnits="userSpaceOnUse" x1="5512.5244" y1="1331.1595" x2="5568.6885" y2="674.7386" gradientTransform="matrix(-0.997 0.0777 0.0777 0.997 5966.1792 -113.0097)">
				<stop  offset="0" style="stop-color:#FF928E"/>
				<stop  offset="1" style="stop-color:#FEB3B1"/>
			</linearGradient>
			<path style="fill:url(#SVGID_00000065076173629316464080000008264008584733019325_);" d="M537.941,1267.064l4.969,19.774
				c0,0-2.398,116.444-0.823,162.824c0.247,7.272,2.68,14.287,6.965,20.167l22.349,30.667l-52.735-25.818l-1.483-6.074l7.368-11.991
				l-20.904-128.607c-1.228-7.555-0.253-15.304,2.807-22.32l8.9-20.403L537.941,1267.064z"/>
			
				<linearGradient id="SVGID_00000110468922244806792740000005934218947819172543_" gradientUnits="userSpaceOnUse" x1="513.8039" y1="1485.0044" x2="579.0166" y2="1485.0044">
				<stop  offset="0" style="stop-color:#4042E2"/>
				<stop  offset="1" style="stop-color:#4F52FF"/>
			</linearGradient>
			<path style="fill:url(#SVGID_00000110468922244806792740000005934218947819172543_);" d="M575.084,1504.903l-16.088,1.255
				c-3.011,0.235-5.959-0.926-7.982-3.17c-5.524-6.126-16.906-18.031-21.901-17.975c-6.723,0.075-4.014,23.787-4.014,23.787
				l-3.749,0.292l-7.053-29.178c-1.775-7.341,1.349-14.995,7.753-18.999l0,0c0,0,2.411,11.189,11.092,15.544
				c8.681,4.355,35.525,20.283,35.525,20.283s3.082-0.688,6.553-0.336C580.366,1496.929,580.243,1504.501,575.084,1504.903z"/>
			
				<linearGradient id="SVGID_00000127037562533520489900000014084024012332359092_" gradientUnits="userSpaceOnUse" x1="5625.5015" y1="1340.9369" x2="5681.6816" y2="684.3317" gradientTransform="matrix(-0.997 0.0777 0.0777 0.997 5966.1792 -113.0097)">
				<stop  offset="0" style="stop-color:#FF928E"/>
				<stop  offset="1" style="stop-color:#FEB3B1"/>
			</linearGradient>
			<path style="fill:url(#SVGID_00000127037562533520489900000014084024012332359092_);" d="M469.631,1281.967
				c0,0-56.947,131.985-65.314,161.758c-8.367,29.773-10.206,54.209-10.17,56.507c0.056,3.59-4.121,7.364-16.37,8.319
				c-6.322,0.493-9.615-1.8-11.322-4.134c-1.457-1.992-1.728-4.605-0.81-6.896c3.256-8.125,13.575-34.085,17.234-45.779
				c4.369-13.963,11.254-76.232,15.99-98.065c4.736-21.833,10.166-45.539,36.373-69.028
				C435.242,1284.648,452.913,1264.418,469.631,1281.967z"/>
			
				<linearGradient id="SVGID_00000178191902028046251810000005164109187247144857_" gradientUnits="userSpaceOnUse" x1="5657.7686" y1="310.6407" x2="5842.9956" y2="-148.2804" gradientTransform="matrix(-0.997 0.0777 0.0777 0.997 5966.1792 -113.0097)">
				<stop  offset="0" style="stop-color:#FE7062"/>
				<stop  offset="1" style="stop-color:#FF928E"/>
			</linearGradient>
			<path style="fill:url(#SVGID_00000178191902028046251810000005164109187247144857_);" d="M495.654,1070.948
				c11.544-74.396-35.351-112.307-35.351-112.307c14.01-15.717,35.201-27.615,51.449-35.144c14.677-6.801,32.013-4.375,44.254,6.2
				c13.468,11.635,28.12,28.115,26.156,43.542c-2.078,16.329-26.171,98.873-26.171,98.873S528.966,1087.58,495.654,1070.948z"/>
			
				<linearGradient id="SVGID_00000004510389953349723700000002488687579910309780_" gradientUnits="userSpaceOnUse" x1="5498.0122" y1="1523.4624" x2="5474.4609" y2="1798.2258" gradientTransform="matrix(-0.997 0.0777 0.0777 0.997 5966.1792 -113.0097)">
				<stop  offset="0" style="stop-color:#4042E2"/>
				<stop  offset="1" style="stop-color:#4F52FF"/>
			</linearGradient>
			<path style="fill:url(#SVGID_00000004510389953349723700000002488687579910309780_);" d="M460.25,1110.094
				c5.368-21.683,35.403-39.146,35.403-39.146c33.313,16.631,60.337,1.164,60.337,1.164s8.168,23.562,5.568,46.254
				c-2.6,22.692-18.648,168.472-18.648,168.472c-42.257,12.047-109.652-0.256-109.652-0.256
				C456.82,1235.895,454.883,1131.778,460.25,1110.094z"/>
			
				<linearGradient id="SVGID_00000068655348908199856880000010896477276510819720_" gradientUnits="userSpaceOnUse" x1="5508.7036" y1="656.3394" x2="5501.1011" y2="505.6695" gradientTransform="matrix(-0.997 0.0777 0.0777 0.997 5966.1792 -113.0097)">
				<stop  offset="0" style="stop-color:#FF928E"/>
				<stop  offset="1" style="stop-color:#FEB3B1"/>
			</linearGradient>
			<path style="fill:url(#SVGID_00000068655348908199856880000010896477276510819720_);" d="M514.232,877.523l-9.107,64.051
				c-0.909,5.65,4.075,4.349,9.599,2.854c9.047-2.447,20.602-6.935,24.001-14.388c0.346-0.759,0.483-1.596,0.532-2.429l2.617-44.126
				c0.208-3.501-1.927-6.716-5.234-7.884l-12.022-4.246C519.992,869.72,515.012,872.677,514.232,877.523z"/>
			
				<linearGradient id="SVGID_00000098188556736728163280000002128894986871284400_" gradientUnits="userSpaceOnUse" x1="5619.1948" y1="1769.7793" x2="5623.7744" y2="1707.6272" gradientTransform="matrix(-0.997 0.0777 0.0777 0.997 5966.1792 -113.0097)">
				<stop  offset="0" style="stop-color:#4042E2"/>
				<stop  offset="1" style="stop-color:#4F52FF"/>
			</linearGradient>
			<polygon style="fill:url(#SVGID_00000098188556736728163280000002128894986871284400_);" points="366.371,1315.007 
				349.908,1305.545 389.54,1200.2 399.053,1206.621 			"/>
			
				<linearGradient id="SVGID_00000038389627850382093420000010383470198228088972_" gradientUnits="userSpaceOnUse" x1="410.403" y1="1191.4207" x2="441.0826" y2="1191.4207">
				<stop  offset="0" style="stop-color:#4042E2"/>
				<stop  offset="1" style="stop-color:#4F52FF"/>
			</linearGradient>
			<path style="fill:url(#SVGID_00000038389627850382093420000010383470198228088972_);" d="M411.049,1214.15
				c-0.194,0-0.358-0.149-0.374-0.346c-0.024-0.312-2.317-31.232,6.839-41.705c1.844-2.109,4.051-3.251,6.561-3.392
				c2.469-0.144,4.711,0.728,6.693,2.573c4.105,3.825,7.089,11.758,8.868,23.577c1.319,8.765,1.446,16.521,1.447,16.598
				c0.003,0.207-0.163,0.378-0.37,0.381c-0.202,0.04-0.378-0.162-0.38-0.369c-0.004-0.307-0.558-30.771-10.076-39.638
				c-1.826-1.701-3.888-2.484-6.139-2.374c-2.3,0.13-4.332,1.186-6.038,3.137c-8.809,10.076-6.68,40.846-6.656,41.153
				c0.016,0.207-0.138,0.387-0.345,0.403C411.068,1214.15,411.059,1214.15,411.049,1214.15z"/>
			
				<linearGradient id="SVGID_00000170278139020622438390000009070303706524246200_" gradientUnits="userSpaceOnUse" x1="5597.0908" y1="774.9378" x2="5576.5894" y2="564.0634" gradientTransform="matrix(-0.997 0.0777 0.0777 0.997 5966.1792 -113.0097)">
				<stop  offset="0" style="stop-color:#FF928E"/>
				<stop  offset="1" style="stop-color:#FEB3B1"/>
			</linearGradient>
			<path style="fill:url(#SVGID_00000170278139020622438390000009070303706524246200_);" d="M483.264,987.615
				c-2.354,3.121-38.028,45.561-48.244,92.92c-10.216,47.359-6.78,78.981-6.78,78.981s10.379,7.741,6.648,13.231
				c-3.731,5.49-2.747,9.226-7.517,10.292c-4.77,1.065-10.684,2.566-9.962-6.849c0.721-9.415-10.518-11.312-8.651-17.003
				c1.858-5.665-10.862-158.507,50.668-199.965c0.29-0.196,0.583-0.389,0.877-0.58C486.314,968.039,487.048,982.597,483.264,987.615
				z"/>
			<polygon style="fill:#7D97F4;" points="448.263,1202.033 399.053,1206.621 366.371,1315.007 437.018,1316.853 			"/>
			<g>
				<path style="fill:#BDD0FB;" d="M365.379,1313.312c0.054,0,0.11-0.008,0.166-0.021c0.35-0.092,0.557-0.45,0.468-0.8
					l-3.159-12.044l24.922-77.33c0.11-0.345-0.079-0.713-0.422-0.825c-0.355-0.105-0.718,0.079-0.825,0.422l-24.981,77.514
					c-0.038,0.12-0.041,0.248-0.01,0.368l3.207,12.228C364.824,1313.118,365.088,1313.312,365.379,1313.312z"/>
			</g>
			<g>
				<path style="fill:#BDD0FB;" d="M351.098,1305.76c0.094,0,0.192-0.021,0.281-0.064l8.52-4.074
					c0.327-0.156,0.465-0.547,0.309-0.871c-0.158-0.325-0.554-0.463-0.871-0.309l-8.52,4.074c-0.327,0.156-0.465,0.547-0.309,0.872
					C350.62,1305.622,350.855,1305.76,351.098,1305.76z"/>
			</g>
			<g>
				
					<linearGradient id="SVGID_00000085246005120016783650000013502337865780159920_" gradientUnits="userSpaceOnUse" x1="2360.2864" y1="-3230.4819" x2="2412.7839" y2="-3161.4854" gradientTransform="matrix(-0.991 0.1338 0.1338 0.991 5837.4644 -709.5112)">
					<stop  offset="0" style="stop-color:#FF928E"/>
					<stop  offset="1" style="stop-color:#FEB3B1"/>
				</linearGradient>
				<path style="fill:url(#SVGID_00000085246005120016783650000013502337865780159920_);" d="M524.311,826.718
					c0,0,19.487,5.296,35.618,30.244c16.132,24.948,8.431,38.513-3.1,41.788c-11.53,3.276-29.15,5.392-50.073-9.306
					C485.833,874.746,499.1,820.726,524.311,826.718z"/>
				
					<linearGradient id="SVGID_00000082367893886394906340000000328946156906526096_" gradientUnits="userSpaceOnUse" x1="5431.4463" y1="1579.2651" x2="5438.8691" y2="1484.0065" gradientTransform="matrix(-0.991 0.1338 0.1338 0.991 5837.4644 -709.5112)">
					<stop  offset="0" style="stop-color:#09005D"/>
					<stop  offset="1" style="stop-color:#1A0F91"/>
				</linearGradient>
				<path style="fill:url(#SVGID_00000082367893886394906340000000328946156906526096_);" d="M517.34,873.534
					c0,0-19.17-37.098,15.323-42.224l8.898,4.586c0,0,9.762-23.321-12.441-30.828c-22.203-7.506-52.014,5.87-57.086,35.102
					c-5.072,29.232,2.556,46.636,19.1,58.061c16.544,11.425,20.563-4.604,20.563-4.604s-9.717-11.463-7.357-18.616
					c2.36-7.153,10.987-0.069,10.987-0.069L517.34,873.534z"/>
				
					<linearGradient id="SVGID_00000099628195256242772340000010491052014396172943_" gradientUnits="userSpaceOnUse" x1="2375.969" y1="-3242.4172" x2="2428.4663" y2="-3173.4207" gradientTransform="matrix(-0.991 0.1338 0.1338 0.991 5837.4644 -709.5112)">
					<stop  offset="0" style="stop-color:#FF928E"/>
					<stop  offset="1" style="stop-color:#FEB3B1"/>
				</linearGradient>
				<path style="fill:url(#SVGID_00000099628195256242772340000010491052014396172943_);" d="M514.051,878.398
					c0,0-9.743-19.128-18.045-9.866c-8.302,9.262,10.128,17.517,17.247,20.035L514.051,878.398z"/>
				
					<linearGradient id="SVGID_00000041989157069537794870000006502120984295855775_" gradientUnits="userSpaceOnUse" x1="5516.5142" y1="1585.8943" x2="5523.937" y2="1490.6354" gradientTransform="matrix(-0.991 0.1338 0.1338 0.991 5837.4644 -709.5112)">
					<stop  offset="0" style="stop-color:#09005D"/>
					<stop  offset="1" style="stop-color:#1A0F91"/>
				</linearGradient>
				<path style="fill:url(#SVGID_00000041989157069537794870000006502120984295855775_);" d="M488.598,834.471
					c0,0-66.989-20.61-78.015,49.264c-11.026,69.874-18.643,92.272-35.252,80.224c0,0,2.735,26.104,34.627,14.437
					C492.738,948.11,442.356,851.138,488.598,834.471z"/>
			</g>
		</g>
		<g>
			<g>
				<g>
					<g>
						
							<rect x="1782.655" y="452.854" transform="matrix(0.36 -0.933 0.933 0.36 749.1202 2137.1755)" style="fill:#7D97F4;" width="299.153" height="139.482"/>
						<path style="opacity:0.5;fill:#FFFFFF;" d="M1942.493,383.935l74.46,28.729c-2.312,5.993,1.225,13.144,7.861,15.704
							c0.211,0.081,0.718,0.267,0.722,0.257l-86.921,225.278c0.004-0.01-0.496-0.216-0.707-0.297
							c-6.636-2.561-13.94,0.205-16.291,6.298c-0.035,0.09-0.119,0.184-0.119,0.184l-72.784-28.083
							c3.964-10.274-2.485-13.864-9.121-16.424c-0.211-0.081-0.286-0.007-0.29,0.003l86.921-225.278
							c-0.004,0.01,0.033,0.034,0.244,0.116C1933.105,392.984,1940.18,389.927,1942.493,383.935z"/>
						<g>
							
								<linearGradient id="SVGID_00000011019523852418949520000003950774386722844830_" gradientUnits="userSpaceOnUse" x1="3167.7693" y1="4213.8062" x2="3137.697" y2="4600.7368" gradientTransform="matrix(0.36 -0.933 0.933 0.36 -3167.9719 1947.4882)">
								<stop  offset="0" style="stop-color:#50E7B7"/>
								<stop  offset="0.9964" style="stop-color:#323992"/>
							</linearGradient>
							
								<circle style="fill:url(#SVGID_00000011019523852418949520000003950774386722844830_);" cx="1931.931" cy="522.322" r="43.881"/>
							<g>
								<path style="fill:#FFFFFF;" d="M1957.95,537.116l-4.329-1.67c-1.922,4.443-4.709,8.496-7.32,11.13
									c-0.932,0.941-2.425,1.028-3.492,0.242l-3.608-2.655c-1.324-0.974-1.468-2.878-0.33-4.063
									c2.532-2.636,5.073-6.117,6.689-10.304c1.677-4.347,1.454-8.157-1.567-9.322c-2.726-1.052-5.313,0.828-9.264,6.244
									c-5.683,7.71-11.828,12.449-19.417,9.521c-6.852-2.644-10.149-9.672-8.195-18.905l-4.329-1.67
									c-1.393-0.537-2.087-2.103-1.549-3.495l0.981-2.544c0.537-1.393,2.103-2.087,3.495-1.549l3.887,1.5
									c1.778-4.111,3.665-6.875,5.444-8.961c0.911-1.068,2.503-1.23,3.635-0.399l3.339,2.45c1.288,0.945,1.482,2.786,0.418,3.976
									c-1.697,1.897-3.783,4.7-5.358,8.781c-1.99,5.157-0.422,7.455,1.494,8.194c2.357,0.91,5.172-1.559,9.822-7.467
									c6.568-8.469,12.082-10.912,19.228-8.154c6.557,2.53,10.574,9.666,8.41,19.664l4.845,1.869
									c1.393,0.537,2.087,2.102,1.549,3.496l-0.982,2.544C1960.908,536.96,1959.343,537.654,1957.95,537.116z"/>
							</g>
						</g>
					</g>
					<path style="fill:#DCE5FE;" d="M1848.663,643.004c-0.083,0-0.167-0.015-0.248-0.046l-24.4-9.414
						c-0.171-0.066-0.308-0.197-0.382-0.364c-0.074-0.167-0.079-0.357-0.013-0.527l26.592-68.918
						c0.137-0.356,0.535-0.534,0.891-0.395c0.355,0.137,0.532,0.536,0.395,0.891l-26.344,68.275l23.757,9.167
						c0.355,0.137,0.532,0.536,0.395,0.891C1849.2,642.836,1848.939,643.004,1848.663,643.004z"/>
					<path style="fill:#FFFFFF;" d="M2014.464,482.228c-0.083,0-0.167-0.015-0.248-0.046c-0.355-0.137-0.532-0.536-0.395-0.891
						l26.013-67.419l-25.469-9.827c-0.355-0.137-0.532-0.536-0.395-0.891c0.137-0.356,0.535-0.535,0.891-0.395l26.112,10.075
						c0.171,0.066,0.308,0.197,0.382,0.364c0.074,0.167,0.079,0.357,0.013,0.527l-26.261,68.063
						C2015.002,482.06,2014.741,482.228,2014.464,482.228z"/>
				</g>
				<g>
					<g>
						
							<rect x="1776.443" y="439.179" transform="matrix(0.36 -0.933 0.933 0.36 757.4759 2122.9221)" style="fill:#91B3FA;" width="299.153" height="140.4"/>
						<path style="opacity:0.5;fill:#FFFFFF;" d="M1936.111,370.653l74.46,28.729c-2.312,5.993,1.537,13.224,8.174,15.784
							c0.211,0.081,0.174,0.017,1.035,0.337l-86.921,225.278c-0.852-0.341-0.795-0.331-1.006-0.412
							c-6.636-2.56-14.103,0.183-16.454,6.276c-0.035,0.089-0.282,0.162-0.282,0.162l-72.784-28.083
							c3.964-10.274-2.6-13.949-9.237-16.51c-0.211-0.081-0.401-0.093-0.405-0.082l86.921-225.278
							c-0.004,0.011,0.149,0.12,0.359,0.201C1926.608,379.617,1933.799,376.646,1936.111,370.653z"/>
						<g>
							
								<linearGradient id="SVGID_00000057852438057531293830000007409075171797730750_" gradientUnits="userSpaceOnUse" x1="3177.9387" y1="4203.0718" x2="3147.8662" y2="4590.0029" gradientTransform="matrix(0.36 -0.933 0.933 0.36 -3167.9719 1947.4882)">
								<stop  offset="0" style="stop-color:#50E7B7"/>
								<stop  offset="0.9964" style="stop-color:#323992"/>
							</linearGradient>
							
								<circle style="fill:url(#SVGID_00000057852438057531293830000007409075171797730750_);" cx="1925.576" cy="508.97" r="43.881"/>
							<g>
								<path style="fill:#FFFFFF;" d="M1951.595,523.764l-4.329-1.67c-1.922,4.443-4.709,8.496-7.32,11.131
									c-0.932,0.941-2.425,1.028-3.492,0.242l-3.608-2.656c-1.324-0.974-1.468-2.878-0.33-4.063
									c2.532-2.636,5.073-6.117,6.689-10.304c1.677-4.347,1.454-8.157-1.567-9.322c-2.726-1.052-5.313,0.828-9.264,6.243
									c-5.683,7.71-11.828,12.449-19.416,9.521c-6.852-2.644-10.149-9.672-8.195-18.905l-4.329-1.671
									c-1.393-0.537-2.086-2.102-1.549-3.495l0.981-2.543c0.538-1.393,2.102-2.087,3.495-1.549l3.887,1.5
									c1.778-4.111,3.665-6.875,5.444-8.961c0.911-1.068,2.503-1.23,3.635-0.399l3.339,2.45c1.288,0.945,1.482,2.786,0.417,3.976
									c-1.697,1.897-3.783,4.699-5.358,8.781c-1.99,5.157-0.422,7.454,1.494,8.194c2.358,0.91,5.172-1.559,9.822-7.467
									c6.569-8.469,12.081-10.912,19.228-8.155c6.557,2.53,10.574,9.666,8.41,19.664l4.844,1.869
									c1.393,0.538,2.087,2.103,1.549,3.496l-0.981,2.544C1954.553,523.608,1952.988,524.302,1951.595,523.764z"/>
							</g>
						</g>
					</g>
					<path style="fill:#DCE5FE;" d="M1843.209,629.097c-0.083,0-0.167-0.015-0.248-0.046l-25.256-9.745
						c-0.171-0.066-0.308-0.197-0.382-0.364c-0.074-0.167-0.079-0.357-0.013-0.527l26.261-68.063
						c0.137-0.356,0.537-0.535,0.891-0.395c0.355,0.137,0.532,0.536,0.395,0.891l-26.013,67.419l24.613,9.497
						c0.355,0.137,0.532,0.536,0.395,0.891C1843.747,628.929,1843.485,629.097,1843.209,629.097z"/>
					<path style="fill:#FFFFFF;" d="M2007.824,468.846c-0.083,0-0.167-0.015-0.248-0.046c-0.355-0.137-0.532-0.536-0.395-0.891
						l26.013-67.42l-24.613-9.496c-0.355-0.137-0.532-0.536-0.395-0.891c0.136-0.356,0.536-0.535,0.891-0.395l25.256,9.745
						c0.171,0.066,0.308,0.197,0.382,0.364c0.074,0.167,0.079,0.357,0.013,0.527l-26.261,68.063
						C2008.362,468.679,2008.101,468.846,2007.824,468.846z"/>
				</g>
				<g>
					<g>
						<g>
							
								<rect x="1771.185" y="427.314" transform="matrix(0.6245 -0.781 0.781 0.6245 332.6297 1686.9181)" style="fill:#7D97F4;" width="299.153" height="140.4"/>
							<path style="opacity:0.5;fill:#FFFFFF;" d="M1972.319,368.373l62.332,49.844c-4.012,5.017-2.618,13.083,2.938,17.525
								c0.177,0.141,0.065,0.079,0.789,0.644l-150.802,188.585c-0.71-0.582-0.605-0.513-0.781-0.654
								c-5.556-4.442-13.432-4.11-17.511,0.991c-0.06,0.075-0.248,0.038-0.248,0.038l-60.929-48.722
								c6.877-8.6,1.631-14.073-3.925-18.516c-0.177-0.141-0.45-0.199-0.458-0.19l150.802-188.585
								c-0.007,0.009,0.202,0.148,0.378,0.289C1960.459,374.065,1968.308,373.39,1972.319,368.373z"/>
							<g>
								
									<ellipse transform="matrix(0.9949 -0.1011 0.1011 0.9949 -40.4368 196.7843)" style="fill:#7D97F4;" cx="1920.483" cy="497.183" rx="43.881" ry="43.881"/>
								<g>
									<path style="fill:#FFFFFF;" d="M1940.834,519.133l-3.624-2.898c-3.172,3.657-7.052,6.68-10.336,8.405
										c-1.173,0.616-2.622,0.248-3.403-0.822l-2.639-3.62c-0.968-1.328-0.532-3.187,0.911-3.974
										c3.209-1.75,6.681-4.302,9.484-7.807c2.91-3.639,3.846-7.339,1.317-9.361c-2.282-1.824-5.315-0.813-10.715,3.16
										c-7.743,5.637-15.031,8.303-21.384,3.223c-5.736-4.587-6.761-12.282-2.113-20.496l-3.624-2.898
										c-1.166-0.932-1.355-2.634-0.423-3.8l1.703-2.129c0.933-1.166,2.634-1.355,3.8-0.423l3.254,2.602
										c2.935-3.384,5.568-5.45,7.892-6.902c1.191-0.744,2.757-0.418,3.586,0.715l2.445,3.343
										c0.943,1.289,0.573,3.103-0.801,3.917c-2.19,1.297-5.024,3.34-7.756,6.757c-3.452,4.317-2.65,6.98-1.046,8.263
										c1.974,1.578,5.401,0.073,11.616-4.158c8.816-6.094,14.809-6.761,20.792-1.977c5.489,4.389,7.168,12.404,2.089,21.285
										l4.056,3.243c1.166,0.932,1.355,2.634,0.423,3.8l-1.703,2.13C1943.702,519.877,1942,520.066,1940.834,519.133z"/>
								</g>
							</g>
						</g>
						<path style="fill:#DCE5FE;" d="M1805.341,587.44c-0.151,0-0.303-0.049-0.43-0.151l-21.142-16.906
							c-0.143-0.114-0.234-0.281-0.254-0.462c-0.021-0.182,0.033-0.364,0.146-0.507l46.135-57.693
							c0.238-0.296,0.672-0.346,0.969-0.108s0.346,0.672,0.108,0.969l-45.705,57.154l20.604,16.476
							c0.297,0.238,0.346,0.672,0.108,0.969C1805.744,587.351,1805.543,587.44,1805.341,587.44z"/>
						<path style="fill:#DCE5FE;" d="M2011.188,483.566c-0.151,0-0.303-0.049-0.43-0.151c-0.297-0.238-0.346-0.672-0.108-0.969
							l45.131-56.438l-20.604-16.476c-0.297-0.238-0.346-0.672-0.108-0.969c0.238-0.296,0.671-0.345,0.969-0.108l21.142,16.906
							c0.297,0.238,0.346,0.672,0.108,0.969l-45.561,56.977C2011.591,483.478,2011.39,483.566,2011.188,483.566z"/>
					</g>
					<g>
						<path style="fill:#7D97F4;" d="M1875.445,560.008c5.361,4.287,6.232,12.109,1.945,17.471
							c-4.287,5.361-12.109,6.232-17.47,1.945c-5.361-4.287-6.232-12.109-1.945-17.471
							C1862.262,556.592,1870.084,555.721,1875.445,560.008z"/>
						<path style="fill:#7D97F4;" d="M1992.24,413.952c5.361,4.287,6.232,12.109,1.945,17.47c-4.287,5.361-12.109,6.232-17.47,1.945
							c-5.361-4.287-6.232-12.109-1.945-17.471C1979.057,410.535,1986.878,409.665,1992.24,413.952z"/>
					</g>
				</g>
			</g>
			<g>
				<g>
					
						<linearGradient id="SVGID_00000005983931647781224160000010675313343192874141_" gradientUnits="userSpaceOnUse" x1="2519.4971" y1="1400.2823" x2="2569.6553" y2="1342.063" gradientTransform="matrix(0.9651 -0.2618 0.2618 0.9651 -915.4445 -11.5878)">
						<stop  offset="0" style="stop-color:#E1473D"/>
						<stop  offset="1" style="stop-color:#E9605A"/>
					</linearGradient>
					
						<circle style="fill:url(#SVGID_00000005983931647781224160000010675313343192874141_);" cx="1916.552" cy="609.501" r="37.394"/>
					
						<linearGradient id="SVGID_00000049915483450386486100000008100930157503796649_" gradientUnits="userSpaceOnUse" x1="2597.998" y1="1299.5997" x2="2449.6785" y2="1523.6685" gradientTransform="matrix(0.9651 -0.2618 0.2618 0.9651 -915.4445 -11.5878)">
						<stop  offset="0" style="stop-color:#FE7062"/>
						<stop  offset="1" style="stop-color:#FF928E"/>
					</linearGradient>
					
						<circle style="fill:url(#SVGID_00000049915483450386486100000008100930157503796649_);" cx="1916.552" cy="609.501" r="36.151"/>
					<path style="opacity:0.72;fill:#FFFFFF;" d="M1884.166,603.98c-0.177,0.048-0.367,0.057-0.559,0.017
						c-0.654-0.134-1.075-0.774-0.941-1.427c2.643-12.873,12.158-23.004,24.831-26.442c2.023-0.549,4.097-0.916,6.167-1.092
						c0.665-0.057,1.25,0.437,1.307,1.101c0.057,0.666-0.432,1.255-1.102,1.307c-1.924,0.165-3.855,0.506-5.738,1.017
						c-11.787,3.198-20.638,12.621-23.097,24.594C1884.94,603.518,1884.593,603.864,1884.166,603.98z"/>
					
						<ellipse transform="matrix(0.4819 -0.8762 0.8762 0.4819 458.9193 1996.2489)" style="opacity:0.72;fill:#FFFFFF;" cx="1917.518" cy="610.055" rx="30.597" ry="30.597"/>
					<g>
						
							<linearGradient id="SVGID_00000079456268576887876780000006113420292167614379_" gradientUnits="userSpaceOnUse" x1="2593.5735" y1="1306.0203" x2="2514.5969" y2="1438.6088" gradientTransform="matrix(0.9651 -0.2618 0.2618 0.9651 -915.4445 -11.5878)">
							<stop  offset="0" style="stop-color:#FE7062"/>
							<stop  offset="1" style="stop-color:#FF928E"/>
						</linearGradient>
						<path style="fill:url(#SVGID_00000079456268576887876780000006113420292167614379_);" d="M1920.576,632.794l-0.871-3.213
							c-3.385,0.775-6.913,0.883-9.545,0.491c-0.94-0.14-1.624-0.966-1.623-1.917l0.004-3.214c0.002-1.179,1.042-2.071,2.21-1.916
							c2.6,0.345,5.691,0.338,8.799-0.505c3.226-0.875,5.335-2.621,4.727-4.863c-0.549-2.023-2.734-2.721-7.543-2.708
							c-6.872-0.014-12.221-1.557-13.749-7.188c-1.379-5.085,1.286-9.975,7.455-12.764l-0.872-3.213
							c-0.28-1.034,0.33-2.099,1.364-2.38l1.888-0.512c1.034-0.281,2.099,0.33,2.38,1.364l0.783,2.885
							c3.133-0.717,5.532-0.799,7.493-0.655c1.005,0.073,1.774,0.926,1.774,1.933l0,2.971c0,1.146-0.982,2.04-2.122,1.929
							c-1.817-0.176-4.324-0.193-7.353,0.629c-3.827,1.038-4.49,2.92-4.105,4.342c0.474,1.75,3.097,2.329,8.488,2.511
							c7.686,0.204,11.439,2.355,12.878,7.659c1.32,4.866-1.102,10.219-7.804,13.211l0.975,3.595c0.28,1.034-0.33,2.099-1.364,2.38
							l-1.888,0.512C1921.922,634.439,1920.856,633.828,1920.576,632.794z"/>
					</g>
				</g>
				<g>
					
						<linearGradient id="SVGID_00000055665705598593479010000007113586253096302982_" gradientUnits="userSpaceOnUse" x1="2588.0327" y1="1399.9368" x2="2675.3496" y2="1298.5869" gradientTransform="matrix(0.9651 -0.2618 0.2618 0.9651 -915.4445 -11.5878)">
						<stop  offset="0" style="stop-color:#E1473D"/>
						<stop  offset="1" style="stop-color:#E9605A"/>
					</linearGradient>
					
						<circle style="fill:url(#SVGID_00000055665705598593479010000007113586253096302982_);" cx="2007.672" cy="538.834" r="65.097"/>
					
						<linearGradient id="SVGID_00000173119998700489196600000003465497756684129677_" gradientUnits="userSpaceOnUse" x1="2724.6895" y1="1224.6659" x2="2466.4907" y2="1614.7306" gradientTransform="matrix(0.9651 -0.2618 0.2618 0.9651 -915.4445 -11.5878)">
						<stop  offset="0" style="stop-color:#FE7062"/>
						<stop  offset="1" style="stop-color:#FF928E"/>
					</linearGradient>
					
						<circle style="fill:url(#SVGID_00000173119998700489196600000003465497756684129677_);" cx="2007.672" cy="538.834" r="62.932"/>
					<path style="opacity:0.72;fill:#FFFFFF;" d="M1951.06,528.358c-0.177,0.048-0.367,0.057-0.559,0.017
						c-0.654-0.134-1.076-0.774-0.941-1.427c4.533-22.076,20.851-39.452,42.585-45.348c3.468-0.941,7.027-1.571,10.576-1.871
						c0.665-0.057,1.25,0.436,1.307,1.102c0.056,0.665-0.435,1.257-1.103,1.306c-3.405,0.289-6.819,0.893-10.147,1.796
						c-20.848,5.656-36.501,22.324-40.85,43.5C1951.833,527.896,1951.486,528.242,1951.06,528.358z"/>
					
						<ellipse transform="matrix(0.2999 -0.954 0.954 0.2999 891.7213 2294.73)" style="opacity:0.72;fill:#FFFFFF;" cx="2009.354" cy="539.799" rx="53.264" ry="53.264"/>
					<g>
						
							<linearGradient id="SVGID_00000134209341187283384060000016002886451004482953_" gradientUnits="userSpaceOnUse" x1="2716.9868" y1="1235.8428" x2="2579.502" y2="1466.6571" gradientTransform="matrix(0.9651 -0.2618 0.2618 0.9651 -915.4445 -11.5878)">
							<stop  offset="0" style="stop-color:#FE7062"/>
							<stop  offset="1" style="stop-color:#FF928E"/>
						</linearGradient>
						<path style="fill:url(#SVGID_00000134209341187283384060000016002886451004482953_);" d="M2014.677,579.383l-1.517-5.593
							c-5.894,1.348-12.034,1.536-16.616,0.855c-1.636-0.243-2.827-1.682-2.825-3.337l0.008-5.595
							c0.003-2.052,1.813-3.605,3.848-3.334c4.525,0.601,9.907,0.587,15.317-0.88c5.616-1.523,9.287-4.563,8.228-8.466
							c-0.955-3.521-4.759-4.737-13.132-4.714c-11.962-0.025-21.274-2.71-23.934-12.514c-2.401-8.852,2.238-17.366,12.978-22.22
							l-1.517-5.593c-0.488-1.8,0.575-3.655,2.375-4.143l3.286-0.891c1.8-0.488,3.655,0.575,4.143,2.375l1.362,5.022
							c5.453-1.247,9.631-1.39,13.044-1.141c1.749,0.128,3.088,1.611,3.088,3.365l0,5.172c0,1.995-1.709,3.551-3.695,3.358
							c-3.164-0.307-7.527-0.336-12.8,1.095c-6.663,1.807-7.817,5.084-7.146,7.559c0.826,3.046,5.392,4.055,14.776,4.371
							c13.38,0.355,19.914,4.101,22.419,13.333c2.298,8.471-1.918,17.789-13.585,22.998l1.698,6.259
							c0.488,1.8-0.575,3.655-2.375,4.143l-3.286,0.892C2017.02,582.246,2015.165,581.183,2014.677,579.383z"/>
					</g>
				</g>
				<g>
					
						<linearGradient id="SVGID_00000171694873502313202540000015729437288039715217_" gradientUnits="userSpaceOnUse" x1="2630.3477" y1="1548.3337" x2="2720.1958" y2="1444.0458" gradientTransform="matrix(0.9651 -0.2618 0.2618 0.9651 -915.4445 -11.5878)">
						<stop  offset="0" style="stop-color:#E1473D"/>
						<stop  offset="1" style="stop-color:#E9605A"/>
					</linearGradient>
					
						<circle style="fill:url(#SVGID_00000171694873502313202540000015729437288039715217_);" cx="2089.068" cy="667.405" r="66.984"/>
					
						<linearGradient id="SVGID_00000021826578665894102620000001468698161776672657_" gradientUnits="userSpaceOnUse" x1="2770.9658" y1="1367.9819" x2="2505.2825" y2="1769.3536" gradientTransform="matrix(0.9651 -0.2618 0.2618 0.9651 -915.4445 -11.5878)">
						<stop  offset="0" style="stop-color:#FE7062"/>
						<stop  offset="1" style="stop-color:#FF928E"/>
					</linearGradient>
					
						<circle style="fill:url(#SVGID_00000021826578665894102620000001468698161776672657_);" cx="2089.068" cy="667.405" r="64.756"/>
					<path style="opacity:0.72;fill:#FFFFFF;" d="M2030.806,656.592c-0.177,0.048-0.367,0.057-0.559,0.017
						c-0.654-0.134-1.075-0.774-0.941-1.427c4.662-22.703,21.443-40.572,43.794-46.635c3.566-0.967,7.226-1.615,10.876-1.924
						c0.665-0.057,1.25,0.436,1.307,1.102c0.056,0.665-0.431,1.252-1.103,1.306c-3.506,0.298-7.021,0.92-10.448,1.85
						c-21.466,5.823-37.581,22.985-42.059,44.787C2031.579,656.13,2031.232,656.476,2030.806,656.592z"/>
					
						<ellipse transform="matrix(0.9436 -0.331 0.331 0.9436 -103.3816 729.777)" style="opacity:0.72;fill:#FFFFFF;" cx="2090.799" cy="668.398" rx="54.808" ry="54.808"/>
					<g>
						
							<linearGradient id="SVGID_00000039842340852001483780000016931716571714203318_" gradientUnits="userSpaceOnUse" x1="2763.04" y1="1379.4829" x2="2621.5701" y2="1616.9878" gradientTransform="matrix(0.9651 -0.2618 0.2618 0.9651 -915.4445 -11.5878)">
							<stop  offset="0" style="stop-color:#FE7062"/>
							<stop  offset="1" style="stop-color:#FF928E"/>
						</linearGradient>
						<path style="fill:url(#SVGID_00000039842340852001483780000016931716571714203318_);" d="M2096.276,709.13l-1.561-5.755
							c-6.064,1.387-12.382,1.581-17.097,0.88c-1.684-0.251-2.909-1.731-2.906-3.434l0.008-5.757
							c0.003-2.112,1.865-3.709,3.959-3.431c4.656,0.618,10.194,0.605,15.761-0.905c5.778-1.567,9.556-4.695,8.467-8.711
							c-0.983-3.623-4.897-4.875-13.512-4.85c-12.309-0.026-21.891-2.789-24.628-12.876c-2.471-9.109,2.303-17.869,13.355-22.865
							l-1.562-5.755c-0.502-1.852,0.592-3.76,2.444-4.263l3.381-0.917c1.852-0.502,3.76,0.591,4.263,2.443l1.402,5.167
							c5.612-1.284,9.91-1.431,13.423-1.174c1.8,0.132,3.178,1.658,3.178,3.462l0,5.322c0,2.052-1.759,3.654-3.802,3.456
							c-3.256-0.316-7.745-0.346-13.171,1.126c-6.856,1.86-8.044,5.231-7.353,7.778c0.85,3.134,5.548,4.172,15.204,4.497
							c13.768,0.366,20.491,4.219,23.069,13.72c2.365,8.716-1.973,18.305-13.978,23.665l1.747,6.44
							c0.502,1.852-0.592,3.76-2.443,4.263l-3.382,0.917C2098.687,712.076,2096.778,710.982,2096.276,709.13z"/>
					</g>
				</g>
				<g>
					
						<linearGradient id="SVGID_00000029725939979594108330000007475516848089669820_" gradientUnits="userSpaceOnUse" x1="2740.7817" y1="1428.6458" x2="2806.6128" y2="1352.2347" gradientTransform="matrix(0.9651 -0.2618 0.2618 0.9651 -915.4445 -11.5878)">
						<stop  offset="0" style="stop-color:#E1473D"/>
						<stop  offset="1" style="stop-color:#E9605A"/>
					</linearGradient>
					
						<circle style="fill:url(#SVGID_00000029725939979594108330000007475516848089669820_);" cx="2148.112" cy="556.845" r="49.078"/>
					
						<linearGradient id="SVGID_00000131330711861369766130000011499288723720078211_" gradientUnits="userSpaceOnUse" x1="2843.8115" y1="1296.5034" x2="2649.1475" y2="1590.5853" gradientTransform="matrix(0.9651 -0.2618 0.2618 0.9651 -915.4445 -11.5878)">
						<stop  offset="0" style="stop-color:#FE7062"/>
						<stop  offset="1" style="stop-color:#FF928E"/>
					</linearGradient>
					
						<circle style="fill:url(#SVGID_00000131330711861369766130000011499288723720078211_);" cx="2148.112" cy="556.845" r="47.447"/>
					<path style="opacity:0.72;fill:#FFFFFF;" d="M2105.508,549.234c-0.176,0.048-0.367,0.057-0.559,0.017
						c-0.654-0.135-1.075-0.774-0.941-1.427c3.441-16.754,15.825-29.942,32.32-34.416c2.629-0.713,5.329-1.191,8.027-1.42
						c0.665-0.057,1.25,0.436,1.307,1.101c0.056,0.665-0.429,1.258-1.102,1.307c-2.552,0.218-5.109,0.67-7.598,1.346
						c-15.608,4.234-27.328,16.714-30.585,32.568C2106.281,548.772,2105.935,549.118,2105.508,549.234z"/>
					
						<ellipse transform="matrix(0.0856 -0.9963 0.9963 0.0856 1409.9294 2651.3569)" style="opacity:0.72;fill:#FFFFFF;" cx="2149.38" cy="557.572" rx="40.158" ry="40.158"/>
					<g>
						
							<linearGradient id="SVGID_00000000945379764482109160000005059587849907680930_" gradientUnits="userSpaceOnUse" x1="2838.0046" y1="1304.9299" x2="2734.3503" y2="1478.9481" gradientTransform="matrix(0.9651 -0.2618 0.2618 0.9651 -915.4445 -11.5878)">
							<stop  offset="0" style="stop-color:#FE7062"/>
							<stop  offset="1" style="stop-color:#FF928E"/>
						</linearGradient>
						<path style="fill:url(#SVGID_00000000945379764482109160000005059587849907680930_);" d="M2153.393,587.416l-1.144-4.216
							c-4.443,1.016-9.073,1.159-12.527,0.644c-1.234-0.184-2.131-1.268-2.13-2.516l0.006-4.218
							c0.002-1.547,1.367-2.718,2.901-2.514c3.412,0.453,7.469,0.443,11.548-0.663c4.234-1.149,7.002-3.441,6.203-6.383
							c-0.72-2.655-3.588-3.572-9.901-3.554c-9.019-0.019-16.039-2.043-18.044-9.434c-1.81-6.674,1.687-13.092,9.785-16.752
							l-1.144-4.217c-0.368-1.357,0.433-2.755,1.79-3.123l2.477-0.672c1.357-0.368,2.755,0.433,3.124,1.79l1.027,3.786
							c4.112-0.941,7.261-1.048,9.835-0.86c1.318,0.096,2.328,1.215,2.328,2.537l0,3.9c0,1.504-1.289,2.677-2.786,2.532
							c-2.385-0.231-5.675-0.253-9.65,0.825c-5.023,1.363-5.894,3.833-5.387,5.699c0.623,2.296,4.065,3.057,11.14,3.295
							c10.088,0.268,15.014,3.091,16.902,10.052c1.733,6.387-1.446,13.412-10.242,17.339l1.28,4.719
							c0.368,1.357-0.433,2.755-1.79,3.123l-2.478,0.672C2155.16,589.575,2153.761,588.773,2153.393,587.416z"/>
					</g>
				</g>
			</g>
		</g>
	</g>
</g>
</svg>
